<svg version="1.1" id="Layer_1" xmlns="http://www.w3.org/2000/svg" xmlns:xlink="http://www.w3.org/1999/xlink" x="0px" y="0px"
	 width="100%" viewBox="0 0 944 832" enable-background="new 0 0 944 832" xml:space="preserve">
<path fill="#000000" opacity="1.000000" stroke="none" 
	d="
M1.000000,832.500000 
	C4.026567,829.867004 2.488028,826.836853 2.391746,824.192749 
	C2.175228,818.246765 1.165737,812.278748 3.309133,806.410706 
	C5.657630,806.794617 4.508874,809.027466 5.604969,810.001953 
	C6.781227,809.268555 6.533599,808.020569 6.537426,806.975464 
	C6.592312,791.984924 6.614615,776.994202 6.614584,762.003540 
	C6.614529,735.685486 6.757016,709.366028 6.531784,683.049805 
	C6.339610,660.596069 6.358821,638.147583 6.522724,615.694702 
	C6.558597,610.780579 8.171732,609.536804 12.850661,609.546448 
	C71.495323,609.667419 130.140350,609.614807 188.785278,609.608765 
	C203.944351,609.607239 219.106415,609.783325 234.260773,609.517212 
	C239.123322,609.431824 240.439194,611.039307 240.428223,615.800903 
	C240.293915,674.091797 240.356720,732.383240 240.363907,790.674500 
	C240.364975,799.331726 240.151733,807.994690 240.410980,816.643799 
	C240.541153,820.986877 239.138794,822.403015 234.715408,822.387390 
	C196.400421,822.252197 158.084686,822.335083 119.769165,822.339600 
	C84.615608,822.343750 49.462048,822.342651 14.308504,822.318481 
	C4.866104,822.312012 4.487847,822.707275 5.863489,832.627930 
	C4.333333,833.000000 2.666667,833.000000 1.000000,832.500000 
M47.727818,798.496033 
	C47.617432,803.655212 47.702789,808.828247 47.336773,813.969238 
	C47.025383,818.342896 48.626606,819.700989 53.025566,819.692871 
	C112.668144,819.582764 172.311111,819.599670 231.953674,819.726746 
	C236.245453,819.735901 237.764709,818.547668 237.749664,814.088379 
	C237.608475,772.271545 237.592224,730.453796 237.755478,688.637146 
	C237.775070,683.616028 236.277527,682.116455 231.204376,682.130859 
	C172.392517,682.297974 113.580025,682.237671 54.767693,682.245667 
	C47.446682,682.246704 47.393097,682.267944 47.388496,689.719788 
	C47.367214,724.191711 47.374649,758.663696 47.390018,793.135620 
	C47.390686,794.629761 47.570938,796.123840 47.727818,798.496033 
M101.499908,644.614136 
	C144.964951,644.622437 188.430115,644.583557 231.894791,644.714111 
	C236.103119,644.726746 237.949036,643.716309 237.741898,639.152161 
	C237.417587,632.005920 237.489471,624.829163 237.715225,617.675476 
	C237.843887,613.598145 236.454315,612.056030 232.261734,612.142883 
	C221.774826,612.360168 211.280136,612.195007 200.788559,612.194397 
	C139.004761,612.191101 77.220970,612.191040 15.437172,612.189880 
	C9.179479,612.189758 9.161963,612.196228 9.168651,618.687134 
	C9.175343,625.181885 9.499278,631.693176 9.133111,638.166077 
	C8.850426,643.163208 10.423312,644.778198 15.569004,644.735352 
	C43.877670,644.499573 72.189285,644.617798 101.499908,644.614136 
M147.499878,679.619934 
	C175.641922,679.625732 203.784348,679.559814 231.925568,679.714050 
	C236.175262,679.737305 237.937057,678.620483 237.741623,674.099548 
	C237.425491,666.786560 237.508270,659.445496 237.721436,652.125000 
	C237.828293,648.454956 236.606873,647.107544 232.859787,647.186096 
	C223.372360,647.385010 213.877930,647.244690 204.386307,647.249390 
	C154.263290,647.274292 104.140137,647.359863 54.017479,647.238159 
	C49.084728,647.226196 47.031063,648.580566 47.337372,653.725159 
	C47.732254,660.357422 48.012074,667.057922 47.493793,673.662537 
	C47.121616,678.405212 48.372501,679.739990 53.081314,679.713867 
	C84.220047,679.541138 115.360184,679.621521 147.499878,679.619934 
M44.649342,746.395447 
	C44.665825,726.741455 44.608517,707.086853 44.761578,687.433899 
	C44.791882,683.543091 43.467552,682.069824 39.557304,682.177673 
	C32.233997,682.379700 24.901287,682.247314 17.572496,682.242310 
	C9.221622,682.236633 9.202690,682.231079 9.198690,690.823730 
	C9.189775,709.978333 9.197082,729.132874 9.206369,748.287476 
	C9.216787,769.773254 9.206037,791.259216 9.271715,812.744812 
	C9.290634,818.933838 10.058046,819.618958 16.208038,819.639648 
	C23.536734,819.664307 30.865637,819.639954 38.194416,819.622375 
	C44.656918,819.606873 44.669388,819.598083 44.668571,813.284668 
	C44.665741,791.308899 44.653473,769.333069 44.649342,746.395447 
M41.787430,679.582947 
	C43.852406,679.447021 44.687988,678.242249 44.681339,676.281677 
	C44.652596,667.808899 44.609447,659.336182 44.617203,650.863403 
	C44.619541,648.306091 43.342941,647.315369 40.902687,647.324524 
	C31.754696,647.359009 22.606485,647.330994 13.458437,647.356201 
	C10.615118,647.364014 9.246093,648.768494 9.269691,651.701294 
	C9.331244,659.351074 9.278076,667.001709 9.284261,674.652039 
	C9.287045,678.096558 10.791656,679.740234 14.476047,679.672607 
	C23.288988,679.510803 32.106869,679.618286 41.787430,679.582947 
z"/>
<path fill="#000000" opacity="1.000000" stroke="none" 
	d="
M1.000000,671.333313 
	C4.200734,669.855591 1.994753,666.421997 4.384633,663.813538 
	C4.384633,669.001892 4.384633,673.378235 4.384633,678.051819 
	C2.026624,676.871155 3.579442,674.164673 1.311256,673.138672 
	C1.000000,672.555542 1.000000,672.111084 1.000000,671.333313 
z"/>
<path fill="#000000" opacity="1.000000" stroke="none" 
	d="
M574.527954,411.596191 
	C574.553406,442.647247 574.659790,473.278137 574.653931,503.909058 
	C574.648987,529.538635 574.480042,555.168213 574.443054,580.797852 
	C574.397217,612.570251 574.293030,644.343628 574.517029,676.114441 
	C574.555176,681.526672 572.364929,682.352417 567.711426,682.340515 
	C518.379578,682.213867 469.047272,682.260254 419.715118,682.253296 
	C395.551392,682.249878 371.386932,682.131287 347.224640,682.312378 
	C342.447906,682.348145 340.510925,681.307373 340.539368,675.993103 
	C340.751434,636.337646 340.647369,596.680420 340.648285,557.023804 
	C340.649414,507.533813 340.652496,458.043793 340.669495,408.553802 
	C340.670532,405.524414 340.865173,402.587250 337.646698,400.679871 
	C335.540253,399.431488 333.923584,399.983276 332.164398,401.819824 
	C330.523499,398.711884 328.148132,398.252747 325.306976,398.213348 
	C302.329834,397.894836 279.354523,397.444489 256.378784,397.027557 
	C253.688522,396.978699 250.942215,396.740784 249.795471,399.699127 
	C247.607590,399.822388 248.128265,397.485809 246.739166,397.154724 
	C245.034012,396.975006 245.672821,399.073120 244.508759,399.415222 
	C242.455826,400.010590 243.206848,396.795868 241.310638,397.055634 
	C239.775497,398.557861 240.375717,400.500916 240.368454,402.249420 
	C240.311646,415.912628 240.225266,429.577393 240.391098,443.238739 
	C240.438385,447.133728 239.161575,448.430756 235.210083,448.425293 
	C160.712784,448.322144 86.215309,448.308075 11.718031,448.403839 
	C7.491007,448.409271 6.476445,447.024414 6.488901,442.931366 
	C6.634424,395.111542 6.631301,347.291107 6.577393,299.470947 
	C6.543605,269.499237 6.306619,239.527786 6.263970,209.556076 
	C6.246430,197.229721 6.524072,184.903152 6.621187,172.576324 
	C6.678406,165.313400 8.105506,164.401398 16.417507,167.800613 
	C8.618555,167.059250 9.021049,171.520493 9.127465,175.985474 
	C9.274362,182.148956 9.466479,188.331833 9.138088,194.479630 
	C8.879471,199.321198 10.651600,200.789703 15.430757,200.769333 
	C53.262215,200.608002 91.094620,200.666428 128.926727,200.660400 
	C162.925858,200.654984 196.924988,200.656464 230.924118,200.647751 
	C237.636139,200.646027 237.650177,200.631042 237.664368,194.090149 
	C237.678848,187.423691 237.401428,180.743652 237.746353,174.095215 
	C237.993866,169.324173 236.093109,168.245255 231.639481,168.257034 
	C181.642792,168.389206 131.645630,168.339844 81.648598,168.339340 
	C73.764931,168.339249 65.881256,168.339340 56.678070,168.339340 
	C59.789574,165.755356 62.034103,166.081467 64.100876,166.066772 
	C89.597733,165.885422 115.094971,165.707458 140.592346,165.663010 
	C171.586258,165.608963 202.580368,165.676270 233.574402,165.706436 
	C240.306152,165.712997 240.321747,165.743011 240.331390,172.277817 
	C240.345657,181.944199 240.309067,191.610748 240.359116,201.276886 
	C240.368149,203.024521 239.858887,204.971680 241.375549,206.319305 
	C244.330750,206.923172 243.675293,203.783569 245.240952,202.969269 
	C247.184189,203.092316 246.423035,205.564728 247.985931,206.136566 
	C249.809998,206.415070 249.250992,204.002182 249.848206,203.839645 
	C257.707581,209.082626 266.083801,205.538101 273.782715,206.873779 
	C274.596588,207.014984 275.417755,207.146759 276.206482,207.380936 
	C276.460693,207.456436 276.621460,207.846619 277.145660,208.480713 
	C269.015320,214.364166 258.590485,205.853973 250.582123,212.864716 
	C249.019073,210.777573 247.138840,210.158936 245.618347,212.774231 
	C243.662689,212.416412 244.033386,209.837173 242.070770,209.960815 
	C240.106644,212.800827 239.204803,385.428070 241.128922,392.954041 
	C243.612411,393.204041 242.180984,389.936615 244.241608,389.672729 
	C246.063522,389.975677 244.875946,392.428589 246.437943,393.130066 
	C248.226196,393.180481 247.499008,390.827148 248.928482,390.416321 
	C249.159698,390.444855 249.682571,390.393982 249.739639,390.533569 
	C250.789078,393.100281 252.814163,393.654327 255.373444,393.689117 
	C279.018372,394.010773 302.664246,394.322235 326.303864,394.887787 
	C329.247009,394.958191 330.346863,393.353058 331.496857,391.486176 
	C338.421906,394.839630 340.663544,393.444519 340.648193,385.980804 
	C340.614258,369.490570 340.546692,353.000305 340.453339,336.510315 
	C340.413086,329.399109 340.592255,329.092773 347.561127,329.090363 
	C420.725616,329.064972 493.890137,329.055328 567.054626,329.070953 
	C574.592346,329.072571 574.679382,329.448578 574.601318,337.118286 
	C574.437012,353.257172 574.413879,369.398468 574.478882,385.538208 
	C574.503784,391.715393 578.387512,393.988312 583.793701,390.923431 
	C585.090942,393.551727 586.976318,394.776031 590.287415,394.752289 
	C616.615845,394.563538 642.946289,394.659698 669.276123,394.646301 
	C672.540955,394.644653 676.307922,395.576965 676.696472,390.644562 
	C678.939697,391.242035 678.448486,393.207825 679.714905,393.912048 
	C681.614258,393.803986 680.609375,391.055481 682.482605,390.855011 
	C684.509644,391.076202 683.577087,393.937805 685.646362,394.401672 
	C688.434631,393.792694 687.547180,391.356506 687.551025,389.612823 
	C687.619812,358.616547 687.611206,327.620117 687.616516,296.623718 
	C687.621094,269.960358 687.626160,243.297028 687.615417,216.633682 
	C687.614746,214.987061 687.477051,213.340515 687.396606,211.549850 
	C683.204895,210.815628 678.331848,213.580353 675.319580,208.560715 
	C674.931213,207.913513 672.795776,208.241547 671.469604,208.241150 
	C644.970520,208.233124 618.471375,208.241150 591.972290,208.253265 
	C589.666748,208.254318 587.299805,207.910553 585.948242,210.638733 
	C585.146423,212.257248 583.561157,211.113022 582.320862,211.123123 
	C577.229187,211.164612 575.114075,213.192963 574.875854,218.240799 
	C573.909607,238.714935 574.566284,259.200775 574.605835,279.678711 
	C574.615295,284.604370 572.747742,285.395782 568.475098,285.386230 
	C517.809937,285.272980 467.144501,285.312012 416.479126,285.300354 
	C393.818237,285.295166 371.157379,285.273254 348.496490,285.243500 
	C340.695312,285.233246 340.667755,285.211884 340.662079,277.183441 
	C340.646637,255.355240 340.656799,233.527023 340.656799,211.630905 
	C339.112213,211.659927 340.155029,214.166580 339.006989,213.596710 
	C335.243622,211.728668 331.015350,213.416321 327.366180,211.848053 
	C325.733673,211.146454 324.188568,210.964935 322.561096,210.971146 
	C318.057892,210.988327 313.557343,211.011215 309.107941,210.207123 
	C307.586548,209.932190 305.661896,210.321106 304.922516,207.793091 
	C312.685181,204.297531 322.053345,209.981461 329.659058,203.883377 
	C335.778290,206.597763 340.659668,203.407211 340.649506,196.166763 
	C340.577667,144.842590 340.482849,93.518425 340.432678,42.194225 
	C340.421600,30.864130 340.781128,19.528734 340.517578,8.206310 
	C340.415527,3.821891 341.580811,2.501090 346.036285,2.539866 
	C369.532959,2.744359 393.032410,2.630314 416.530884,2.629923 
	C466.863007,2.629085 517.195129,2.628676 567.527283,2.632231 
	C574.332581,2.632712 574.377502,2.643722 574.383362,9.468394 
	C574.413513,44.608925 574.318787,79.749901 574.465088,114.889885 
	C574.576660,141.694534 573.951782,168.504135 574.914062,195.303925 
	C575.118164,200.988831 578.077271,203.700424 583.676086,203.101868 
	C584.532166,203.010345 585.397522,202.599319 585.840454,203.418594 
	C587.401306,206.305374 590.095459,205.588272 592.495605,205.590988 
	C618.660461,205.620605 644.825562,205.558807 670.990051,205.656113 
	C674.408569,205.668823 677.298767,205.424255 678.169800,201.699631 
	C681.077637,201.457993 679.693542,204.528427 681.730957,205.197662 
	C682.541809,202.757965 683.740234,200.517288 687.621704,202.169052 
	C687.621704,191.160507 687.616699,180.867233 687.624268,170.573944 
	C687.627136,166.576736 687.809082,162.572845 687.631287,158.584396 
	C687.474609,155.071381 689.008484,153.760681 692.366699,153.918564 
	C694.860229,154.035797 697.365173,153.895905 699.864990,153.896362 
	C770.529114,153.909561 841.193237,153.926041 911.857361,153.942017 
	C912.190674,153.942093 912.523987,153.941757 912.857300,153.943192 
	C921.331360,153.979813 921.360596,153.979813 921.367249,162.252869 
	C921.399719,202.890366 921.367126,243.527985 921.453979,284.165344 
	C921.510193,310.461609 921.848389,336.757507 921.849854,363.053589 
	C921.851624,394.351562 921.609009,425.649506 921.508423,456.947571 
	C921.436157,479.426208 921.339233,501.905457 921.456848,524.383423 
	C921.479797,528.767822 920.379822,530.444397 915.585266,530.434509 
	C841.924255,530.283081 768.262756,530.328430 694.601440,530.318481 
	C687.673523,530.317566 687.666260,530.288086 687.665955,523.450012 
	C687.664185,483.454346 687.676941,443.458710 687.634583,403.463074 
	C687.632446,401.463226 688.347534,399.167328 686.632324,397.654144 
	C683.881287,397.536743 684.538574,400.309845 682.894470,401.018372 
	C680.817993,401.246521 681.430969,398.706604 680.056946,398.085175 
	C678.275696,397.874390 678.792236,400.302948 678.236206,400.400970 
	C669.956604,394.841949 661.333252,397.710114 653.294861,397.530334 
	C632.810913,397.072113 612.310059,397.382690 591.815979,397.347626 
	C588.564270,397.342041 585.317383,397.149292 583.918457,401.882812 
	C581.980713,398.606262 579.986145,398.835266 577.669495,400.136200 
	C575.410461,401.404755 574.097290,402.959137 574.429565,405.718567 
	C574.646179,407.516876 574.528381,409.355469 574.527954,411.596191 
M729.164734,431.500000 
	C729.145264,461.153534 729.121948,490.807037 729.109131,520.460571 
	C729.106079,527.537476 729.218262,527.675842 736.418213,527.676514 
	C794.896973,527.681946 853.375732,527.673401 911.854492,527.657776 
	C918.156921,527.656128 918.710083,527.137573 918.722412,520.830200 
	C918.766541,498.347198 918.799561,475.864044 918.768860,453.381073 
	C918.715332,414.243469 918.547058,375.105957 918.547546,335.968384 
	C918.547974,301.660828 918.674500,267.353058 918.861389,233.046021 
	C918.882812,229.125809 918.368042,226.923584 913.531128,226.934189 
	C854.219788,227.064224 794.908020,227.000412 735.596375,227.014328 
	C729.512634,227.015747 729.118958,227.464493 729.119629,233.616898 
	C729.126831,299.244598 729.145935,364.872284 729.164734,431.500000 
M571.692505,493.500031 
	C571.688782,465.350311 571.704041,437.200592 571.667664,409.050934 
	C571.658752,402.174011 571.580933,402.151672 564.698242,402.146576 
	C506.060638,402.103088 447.423065,402.065826 388.785461,402.034607 
	C382.029266,402.031006 382.022003,402.053497 382.023407,409.136292 
	C382.032654,455.944427 382.051086,502.752594 382.055084,549.560730 
	C382.058655,591.203735 382.081726,632.846863 381.986176,674.489685 
	C381.977264,678.363953 383.249817,679.854797 387.202454,679.693970 
	C394.188293,679.409668 401.190063,679.461426 408.185120,679.466492 
	C460.491302,679.504333 512.797485,679.568542 565.103699,679.614502 
	C571.662720,679.620239 571.651550,679.593140 571.652710,672.897705 
	C571.663208,613.431824 571.677917,553.965942 571.692505,493.500031 
M83.500038,238.348495 
	C73.502426,238.371918 63.499752,238.591141 53.509415,238.332932 
	C48.795300,238.211105 47.152729,240.181946 47.408962,244.532959 
	C47.487144,245.860519 47.380596,247.198135 47.384415,248.531067 
	C47.468369,277.832245 47.629524,307.133423 47.623711,336.434601 
	C47.616867,370.916504 47.541679,405.398926 47.287308,439.879608 
	C47.253124,444.512970 48.703140,445.856812 53.282352,445.843018 
	C98.773811,445.706146 144.265869,445.770081 189.757751,445.776093 
	C203.921616,445.777954 218.087082,445.656952 232.248322,445.849915 
	C236.411896,445.906586 237.869919,444.478241 237.706863,440.347382 
	C237.431030,433.359497 237.538681,426.355072 237.542679,419.357666 
	C237.576050,361.041382 237.571136,302.724945 237.758774,244.409119 
	C237.774490,239.522552 236.201248,238.256744 231.456116,238.271362 
	C182.471130,238.422226 133.485489,238.356354 83.500038,238.348495 
M382.029999,240.500000 
	C382.034241,252.325684 382.031860,264.151367 382.045319,275.977051 
	C382.052856,282.604187 382.064697,282.621002 388.624329,282.622711 
	C447.255463,282.638184 505.886627,282.648682 564.517761,282.656494 
	C571.676331,282.657440 571.693420,282.646088 571.692749,275.554657 
	C571.686707,211.262222 571.670349,146.969788 571.669067,82.677345 
	C571.668884,75.232132 571.702942,75.207870 564.309204,75.203125 
	C505.676086,75.165535 447.042999,75.137634 388.409882,75.107574 
	C382.181824,75.104385 382.034668,75.272881 382.034943,81.593376 
	C382.037262,134.228912 382.033234,186.864456 382.029999,240.500000 
M725.963989,518.405579 
	C725.940491,451.952789 725.905029,385.499969 725.899109,319.047180 
	C725.896606,291.066376 725.963745,263.085571 725.983154,235.104767 
	C725.988708,227.026154 725.963074,227.003235 718.161011,226.974960 
	C711.165527,226.949615 704.169800,226.968918 697.174255,226.993042 
	C690.603577,227.015701 690.374512,227.231506 690.370117,233.675674 
	C690.354370,256.653900 690.354553,279.632141 690.351746,302.610382 
	C690.346863,343.575073 690.342590,384.539734 690.341187,425.504425 
	C690.340088,457.647095 690.410400,489.790070 690.265320,521.932068 
	C690.246033,526.204956 691.398010,527.939026 695.882385,527.758850 
	C703.199402,527.464844 710.536743,527.680481 717.865540,527.679138 
	C725.953308,527.677673 725.953308,527.676697 725.963989,518.405579 
M343.319977,510.500000 
	C343.321136,564.997620 343.367249,619.495422 343.238831,673.992737 
	C343.228424,678.393005 344.568726,679.867615 348.949463,679.711243 
	C356.939240,679.426086 364.954742,679.401855 372.942871,679.706116 
	C377.605316,679.883789 378.898315,678.202209 378.888336,673.641785 
	C378.762726,616.315674 378.808105,558.989197 378.824097,501.662781 
	C378.832764,470.668427 378.878571,439.674072 378.884583,408.679718 
	C378.885864,402.088745 378.835999,402.069763 372.130463,402.052521 
	C364.630676,402.033234 357.130798,402.050842 349.630981,402.041656 
	C343.328491,402.033966 343.299072,402.039886 343.299469,408.504242 
	C343.301666,442.169495 343.313171,475.834747 343.319977,510.500000 
M378.843597,278.152618 
	C378.839447,268.655884 378.830994,259.159149 378.831848,249.662415 
	C378.836792,193.180756 378.814240,136.699051 378.913483,80.217560 
	C378.920502,76.225273 377.445129,74.972382 373.618439,75.068970 
	C365.792053,75.266510 357.957306,75.130348 350.125977,75.133827 
	C343.654022,75.136696 343.403168,75.408882 343.400574,81.912201 
	C343.384338,122.900673 343.359589,163.889145 343.337769,204.877609 
	C343.324921,229.037720 343.303680,253.197830 343.312897,277.357941 
	C343.313812,279.770447 342.660004,282.649292 346.681000,282.628662 
	C356.178253,282.579956 365.675903,282.588165 375.173248,282.620483 
	C377.643341,282.628906 378.939758,281.603699 378.843597,278.152618 
M44.649235,280.499908 
	C44.646389,268.680511 44.652409,256.861115 44.637188,245.041702 
	C44.628807,238.535553 44.531639,238.421021 37.850365,238.382721 
	C30.353405,238.339752 22.844719,238.616959 15.362864,238.276840 
	C10.443863,238.053207 9.125333,239.939224 9.148808,244.647552 
	C9.306620,276.300568 9.220418,307.954834 9.216525,339.608673 
	C9.212407,373.095673 9.299684,406.583130 9.110435,440.069092 
	C9.083577,444.821289 10.666287,446.112610 15.174294,445.908020 
	C22.657068,445.568481 30.164700,445.784790 37.661785,445.750092 
	C44.668343,445.717682 44.664082,445.708008 44.663227,438.898926 
	C44.656624,386.432617 44.651783,333.966278 44.649235,280.499908 
M409.499969,5.105243 
	C389.168304,5.092513 368.836182,5.147993 348.505432,5.006828 
	C344.654175,4.980087 343.109131,6.199222 343.246674,10.181093 
	C343.488190,17.172413 343.611176,24.192818 343.238647,31.171938 
	C342.972015,36.166889 344.508362,37.770798 349.667572,37.733444 
	C381.830017,37.500572 413.994904,37.597557 446.158966,37.594982 
	C485.489166,37.591831 524.819397,37.599876 564.149597,37.599163 
	C571.672791,37.599026 571.679810,37.590672 571.702148,29.847685 
	C571.718018,24.348160 571.713135,18.848568 571.715271,13.349006 
	C571.718445,5.140438 571.717651,5.117659 563.487610,5.116383 
	C512.491760,5.108481 461.495880,5.111652 409.499969,5.105243 
M750.500000,188.940399 
	C769.822205,188.955521 789.144409,188.984268 808.466614,188.982742 
	C843.113159,188.979996 877.759949,188.895645 912.406006,189.021362 
	C917.037292,189.038162 919.090332,187.782333 918.869751,182.819275 
	C918.552063,175.671494 918.702148,168.495529 918.869934,161.336685 
	C918.955322,157.693436 917.579041,156.364120 913.889160,156.367264 
	C841.098267,156.429398 768.307373,156.423798 695.516479,156.335281 
	C691.525635,156.330429 690.224731,157.907913 690.308960,161.680252 
	C690.465271,168.672760 690.602783,175.682510 690.276794,182.663086 
	C690.053162,187.453125 691.722717,189.067856 696.533569,189.010452 
	C714.186768,188.799805 731.844177,188.936661 750.500000,188.940399 
M547.500000,364.076294 
	C553.999451,364.066345 560.501343,363.948700 566.997437,364.090576 
	C570.390442,364.164703 571.815857,362.949585 571.736023,359.442596 
	C571.572998,352.280457 571.461304,345.101562 571.780334,337.949707 
	C571.985474,333.350189 570.408997,331.916016 565.799927,331.954590 
	C542.637329,332.148346 519.472168,332.036407 496.307892,332.031189 
	C447.313232,332.020081 398.318451,332.053406 349.324097,331.922974 
	C344.789764,331.910889 342.994934,333.308929 343.222198,337.954742 
	C343.531281,344.273010 343.315704,350.616486 343.343262,356.949097 
	C343.374115,364.029694 343.382965,364.039551 350.520905,364.041107 
	C415.847260,364.055420 481.173645,364.066040 547.500000,364.076294 
M488.499908,72.608353 
	C514.638977,72.577797 540.778442,72.465073 566.916565,72.605835 
	C570.809875,72.626793 571.824646,71.245628 571.741699,67.685425 
	C571.571167,60.363598 571.591614,53.033482 571.720215,45.710052 
	C571.791992,41.626019 570.553162,39.943741 565.985046,39.983631 
	C539.347961,40.216225 512.707764,40.107559 486.068665,40.107861 
	C453.447784,40.108227 420.826355,40.190781 388.206543,40.003269 
	C383.353607,39.975368 381.721680,41.550430 381.945435,46.297653 
	C382.250824,52.776764 382.020996,59.280685 382.038086,65.773918 
	C382.055908,72.553474 382.100403,72.597076 389.117798,72.598473 
	C421.911835,72.604973 454.705841,72.605804 488.499908,72.608353 
M91.500259,203.383194 
	C78.512009,203.375977 65.523727,203.380707 52.535534,203.351654 
	C49.860931,203.345673 47.406658,203.450333 47.416645,207.110809 
	C47.438404,215.083725 47.502895,223.058533 47.354752,231.028961 
	C47.291409,234.436813 48.513050,235.910706 52.015587,235.722900 
	C55.668499,235.527023 59.339954,235.674988 63.003300,235.675797 
	C119.119186,235.688324 175.235275,235.635651 231.350586,235.823486 
	C236.543304,235.840851 238.065445,234.162170 237.745514,229.217667 
	C237.337662,222.914230 237.513519,216.572464 237.456085,210.247055 
	C237.393661,203.371796 237.402817,203.362930 230.369293,203.363510 
	C184.412964,203.367340 138.456619,203.375275 91.500259,203.383194 
M555.283813,399.567383 
	C559.274414,399.741150 563.245422,398.752869 567.251099,399.429993 
	C570.494629,399.978241 571.772644,398.515350 571.722107,395.252380 
	C571.603577,387.592041 571.522522,379.923431 571.758362,372.268402 
	C571.879883,368.323578 570.434204,367.059448 566.555176,367.063263 
	C506.753082,367.122040 446.950775,367.098969 387.148743,366.990570 
	C383.152405,366.983307 381.912689,368.547333 381.999756,372.332703 
	C382.171997,379.823792 382.145721,387.324402 381.979614,394.816162 
	C381.897797,398.506195 383.183624,399.447357 386.964294,399.499939 
	C425.107574,400.030304 463.243256,399.029144 501.382202,399.133545 
	C519.035278,399.181854 536.687805,399.417236 555.283813,399.567383 
M769.500000,223.969177 
	C784.320496,223.963348 799.140991,223.952499 813.961487,223.952744 
	C847.100830,223.953293 880.240356,223.904480 913.379272,224.033142 
	C917.489746,224.049103 919.024902,222.754135 918.880127,218.583115 
	C918.626099,211.268280 918.677063,203.935440 918.851807,196.616165 
	C918.943970,192.758087 917.527405,191.278152 913.599365,191.367554 
	C904.777954,191.568344 895.948669,191.426041 887.122620,191.426376 
	C844.998962,191.428009 802.875366,191.429688 760.751709,191.433701 
	C752.269226,191.434509 743.786194,191.505936 735.304504,191.426636 
	C731.052795,191.386902 728.878906,192.780014 729.096130,197.554398 
	C729.413513,204.531631 729.314941,211.541962 729.057434,218.525787 
	C728.905334,222.648575 730.385803,224.109909 734.529175,224.035873 
	C745.849609,223.833633 757.175964,223.967285 769.500000,223.969177 
M44.620300,207.338577 
	C44.842239,204.607468 43.624752,203.359909 40.845764,203.374619 
	C31.846752,203.422241 22.847120,203.415344 13.848085,203.365326 
	C10.437151,203.346359 9.146282,204.938812 9.206264,208.302902 
	C9.333989,215.466354 9.377997,222.638535 9.160710,229.798157 
	C9.031616,234.051819 10.550679,235.849304 14.942405,235.735641 
	C23.103010,235.524384 31.276812,235.524780 39.437290,235.737457 
	C43.291862,235.837906 44.856895,234.597153 44.724998,230.604019 
	C44.477814,223.120636 44.600460,215.625015 44.620300,207.338577 
M374.089355,72.596657 
	C377.451691,72.927635 378.958557,71.501381 378.904297,68.031578 
	C378.784882,60.391861 378.738770,52.746468 378.905121,45.108673 
	C378.991486,41.142712 377.262390,39.914925 373.508148,39.998116 
	C365.372070,40.178417 357.223572,40.260365 349.092163,40.002975 
	C344.638947,39.862015 343.210968,41.707615 343.303833,45.881985 
	C343.466309,53.187431 343.510193,60.504341 343.278107,67.806099 
	C343.157318,71.606255 344.685699,72.730484 348.256897,72.660759 
	C356.559875,72.498634 364.868042,72.603058 374.089355,72.596657 
M372.322083,367.077972 
	C364.341431,367.084778 356.359650,367.172852 348.380646,367.061615 
	C344.771027,367.011292 343.272522,368.493866 343.325928,372.109253 
	C343.438843,379.749695 343.451569,387.395386 343.290405,395.034363 
	C343.224274,398.169922 344.710419,398.915100 347.472107,399.202820 
	C356.290222,400.121399 365.080444,398.998932 373.877411,399.139832 
	C377.943146,399.204956 379.013031,397.387695 378.920532,393.688721 
	C378.746185,386.715302 378.673401,379.726044 378.955597,372.759430 
	C379.131165,368.424500 377.666962,366.463867 372.322083,367.077972 
M703.514648,223.969589 
	C709.501892,223.968597 715.489563,223.926208 721.476196,223.985260 
	C724.204041,224.012146 725.979370,223.253281 725.951294,220.092300 
	C725.879028,211.945770 725.866394,203.798340 725.895447,195.651489 
	C725.905090,192.956223 724.647583,191.598969 722.009399,191.587555 
	C712.709412,191.547363 703.409119,191.563522 694.109131,191.526031 
	C691.395020,191.515106 690.270569,192.719528 690.335449,195.490479 
	C690.471313,201.295395 690.436035,207.105652 690.393799,212.913147 
	C690.299622,225.875397 689.223938,223.782974 701.025146,223.970184 
	C701.523987,223.978088 702.023010,223.970016 703.514648,223.969589 
z"/>
<path fill="#000000" opacity="1.000000" stroke="none" 
	d="
M687.637756,658.965942 
	C687.650452,643.981934 687.784729,629.489929 687.598755,615.002075 
	C687.545471,610.849976 688.979492,609.551575 693.061340,609.556396 
	C767.521179,609.644531 841.981079,609.648010 916.440857,609.555542 
	C920.486694,609.550537 921.501160,611.091064 921.481812,614.841797 
	C921.353821,639.635620 921.384583,664.430298 921.384338,689.224731 
	C921.383972,731.338562 921.402527,773.452332 921.403625,815.566162 
	C921.403809,822.285278 921.380981,822.311829 914.861511,822.312195 
	C841.570618,822.316345 768.279663,822.315308 694.988770,822.304077 
	C687.660278,822.302979 687.661255,822.267517 687.660217,814.873657 
	C687.652893,763.068970 687.645203,711.264221 687.637756,658.965942 
M827.500000,682.234497 
	C797.005859,682.232117 766.511780,682.222473 736.017639,682.232788 
	C729.194763,682.235046 729.121948,682.323303 729.120117,689.305054 
	C729.109436,730.461853 729.103638,771.618713 729.107483,812.775513 
	C729.108093,819.546814 729.180176,819.621155 736.204529,819.622620 
	C794.856018,819.634888 853.507507,819.638306 912.158997,819.635376 
	C918.656677,819.635071 918.758362,819.544434 918.761780,812.824463 
	C918.782776,771.507812 918.790771,730.191162 918.786560,688.874512 
	C918.785889,682.341064 918.687012,682.251526 911.984863,682.247925 
	C884.156555,682.232971 856.328308,682.238098 827.500000,682.234497 
M891.500000,612.233887 
	C871.506958,612.225403 851.513977,612.210449 831.520935,612.209656 
	C786.536865,612.207947 741.552673,612.271484 696.569031,612.129578 
	C691.843933,612.114685 689.989197,613.432373 690.253357,618.338135 
	C690.611145,624.983215 690.655579,631.681458 690.242249,638.320007 
	C689.920349,643.490845 691.799255,644.758484 696.786865,644.734131 
	C735.272156,644.545837 773.758911,644.642273 812.245178,644.640137 
	C845.566711,644.638245 878.888733,644.539734 912.209351,644.705566 
	C917.064941,644.729736 919.189148,643.584717 918.882874,638.321777 
	C918.476990,631.347839 918.636719,624.328552 918.835022,617.336731 
	C918.947693,613.365234 917.306946,612.063721 913.491028,612.170105 
	C906.498901,612.364990 899.497498,612.231018 891.500000,612.233887 
M729.828918,648.480164 
	C728.337708,656.568787 729.391357,664.725647 729.206543,672.848694 
	C729.058105,679.371948 729.368652,679.617188 735.863586,679.621033 
	C762.028381,679.636597 788.193237,679.624695 814.358032,679.623169 
	C847.189209,679.621338 880.020447,679.574341 912.851318,679.677002 
	C916.880310,679.689575 919.085571,678.951355 918.848633,674.201416 
	C918.508911,667.389343 918.516052,660.530701 918.899963,653.721558 
	C919.185913,648.647644 917.430359,647.205444 912.366394,647.218994 
	C853.537903,647.377014 794.708679,647.309448 735.879700,647.315430 
	C734.064148,647.315613 732.201477,647.043701 729.828918,648.480164 
M694.008728,682.273071 
	C690.709045,682.176697 690.329834,684.301514 690.331421,686.909668 
	C690.357605,729.718018 690.376404,772.526489 690.315369,815.334717 
	C690.310669,818.650696 691.701660,819.709656 694.817505,819.673828 
	C703.645325,819.572205 712.475952,819.552612 721.303284,819.668274 
	C724.731934,819.713135 726.113220,818.372925 726.006897,814.926819 
	C725.816956,808.769592 725.833008,802.604614 725.838867,796.442932 
	C725.873291,760.296753 725.861938,724.150208 726.061096,688.004822 
	C726.087097,683.285828 724.347717,681.986816 719.898376,682.140442 
	C711.578796,682.427612 703.242798,682.240967 694.008728,682.273071 
M698.648438,647.349548 
	C690.369019,647.344788 690.368896,647.344788 690.367554,655.422241 
	C690.366394,662.084290 690.452087,668.747925 690.324768,675.407593 
	C690.268616,678.344116 691.277039,679.683044 694.342468,679.652039 
	C703.502930,679.559387 712.665283,679.571533 721.826172,679.638916 
	C724.835999,679.661072 726.010071,678.261108 725.987061,675.379822 
	C725.924500,667.553528 725.869202,659.726013 725.950134,651.900330 
	C725.985840,648.447632 724.477905,647.203003 721.095398,647.276428 
	C713.936157,647.431946 706.771423,647.335327 698.648438,647.349548 
z"/>
<path fill="#000000" opacity="1.000000" stroke="none" 
	d="
M123.028160,182.047836 
	C124.261131,178.771179 128.753693,177.186661 132.703430,179.288986 
	C135.657852,180.861526 138.149582,181.415665 140.987656,179.455414 
	C142.185974,178.627716 143.460846,178.729141 144.724274,179.511932 
	C145.556335,180.027451 146.756592,180.991821 147.316940,180.731735 
	C150.699844,179.161514 153.803787,180.524857 157.115753,180.888519 
	C160.648041,181.276367 163.020035,182.050781 163.092896,185.838150 
	C163.170654,189.880524 160.610992,190.557068 157.075470,190.434830 
	C148.187958,190.127518 139.282532,189.879181 130.399475,190.134781 
	C127.008629,190.232346 125.792061,189.285492 125.819542,186.128540 
	C125.834190,184.445251 125.843163,182.711472 123.350304,182.081299 
	C122.999306,182.009583 123.028160,182.047836 123.028160,182.047836 
z"/>
<path fill="#000000" opacity="1.000000" stroke="none" 
	d="
M122.983124,181.991943 
	C123.128166,183.294464 123.262177,184.618652 123.455956,185.934021 
	C123.942688,189.237808 122.187599,190.840958 119.211952,190.517410 
	C108.663681,189.370361 98.135834,190.792923 87.600708,190.503922 
	C83.390472,190.388428 81.128250,187.638062 82.135689,183.680237 
	C82.551102,182.048279 83.370132,181.106598 85.230782,181.100418 
	C96.650917,181.062454 108.070770,180.938904 119.490883,180.912949 
	C120.438850,180.910782 121.387993,181.420273 122.682373,181.869934 
	C123.028160,182.047836 122.999306,182.009583 122.983124,181.991943 
z"/>
<path fill="#000000" opacity="1.000000" stroke="none" 
	d="
M2.321656,643.925537 
	C2.094435,641.020264 2.647815,638.685242 3.847096,636.403015 
	C6.025533,644.001160 4.698819,651.591431 4.171459,659.190613 
	C2.252095,654.360779 3.430672,649.233582 2.321656,643.925537 
z"/>
<path fill="#000000" opacity="1.000000" stroke="none" 
	d="
M96.941452,772.162354 
	C87.290184,771.777405 77.937645,773.710999 68.638000,771.163086 
	C66.453110,770.564453 63.672699,772.281921 60.996887,772.310181 
	C57.551880,772.346558 55.391079,770.847168 55.192005,767.538025 
	C54.979362,764.003357 57.281528,762.613586 60.667355,762.661987 
	C66.968697,762.752136 73.412369,763.591553 79.531563,762.554321 
	C85.092079,761.611938 90.349754,761.833313 95.679405,762.794983 
	C99.349144,763.457092 102.516098,762.913025 105.270096,760.470581 
	C108.115120,761.824585 107.117348,764.242737 107.222939,766.232178 
	C107.345848,768.547852 107.548546,770.623474 110.572121,770.778564 
	C113.194565,770.913025 115.468803,770.990295 116.021141,767.392517 
	C116.480042,764.403381 124.035698,760.375122 126.711090,761.424744 
	C128.022461,761.939270 128.740082,763.108765 128.652420,764.611023 
	C128.519653,766.886353 128.368195,769.160522 128.194946,771.906372 
	C122.932625,771.986572 117.798714,772.638916 112.715355,774.140747 
	C108.476128,775.393188 104.653458,771.419250 100.228973,771.980530 
	C99.264198,772.102966 98.274704,772.030518 96.941452,772.162354 
z"/>
<path fill="#000000" opacity="1.000000" stroke="none" 
	d="
M120.038925,804.045837 
	C119.918221,809.654968 114.994293,807.484314 113.612419,806.731323 
	C106.658707,802.942017 99.466324,805.105774 92.385818,804.899963 
	C86.277504,804.722412 80.169060,804.546326 74.059853,804.405090 
	C73.080055,804.382385 71.660286,804.153503 71.182411,804.684570 
	C67.166107,809.147583 63.203655,805.398438 59.260044,804.748230 
	C55.820210,804.181030 55.404224,801.241455 55.299759,798.633423 
	C55.174942,795.517334 57.547932,796.250549 59.753582,795.811707 
	C63.923721,794.982117 68.435738,796.310486 71.916084,795.225342 
	C78.361275,793.215637 84.687584,795.679016 90.785194,794.041626 
	C93.813728,793.228394 95.913109,795.331421 98.742775,795.407410 
	C102.901680,795.518982 106.551476,795.432129 109.594696,792.915955 
	C112.202347,793.903809 112.668015,796.112915 112.351578,797.611694 
	C111.044342,803.803101 114.670654,804.168335 119.557487,803.944092 
	C120.003860,804.006653 120.038925,804.045837 120.038925,804.045837 
z"/>
<path fill="#000000" opacity="1.000000" stroke="none" 
	d="
M65.661507,730.289062 
	C75.805954,730.032776 85.559402,729.920410 95.312508,729.783569 
	C97.446503,729.753662 98.778732,730.799072 99.397858,732.752563 
	C100.107964,734.993164 100.605476,737.239868 98.362724,738.819580 
	C95.704872,738.531677 96.639351,736.083252 95.515709,734.987610 
	C94.778572,736.347961 95.587700,738.823425 93.130409,738.790771 
	C90.874496,738.760742 91.562172,736.210815 90.543449,735.012207 
	C89.304573,739.205444 85.287247,740.075745 79.372993,739.635193 
	C72.029724,739.087952 64.343185,737.749207 56.904720,742.049500 
	C53.765686,738.847900 55.058372,734.612854 56.312229,731.617432 
	C57.999207,727.587280 62.196049,730.737915 65.661507,730.289062 
z"/>
<path fill="#000000" opacity="1.000000" stroke="none" 
	d="
M67.375999,703.286255 
	C64.032028,705.332703 60.888237,703.638367 57.785000,703.814026 
	C56.339668,703.895874 55.921368,702.504089 55.927536,701.305908 
	C55.941643,698.564331 55.075939,695.672058 57.280972,692.748657 
	C60.361729,697.506592 63.520206,693.579895 66.909538,692.843323 
	C68.934654,696.188599 68.312653,699.568237 67.375999,703.286255 
z"/>
<path fill="#000000" opacity="1.000000" stroke="none" 
	d="
M119.985626,803.987793 
	C118.031250,794.581665 125.699051,795.434387 131.393967,793.820923 
	C135.474686,796.330261 130.262543,800.917969 134.689178,804.357666 
	C128.890472,804.124451 124.825905,805.032288 120.381210,804.118774 
	C120.038925,804.045837 120.003860,804.006653 119.985626,803.987793 
z"/>
<path fill="#000000" opacity="1.000000" stroke="none" 
	d="
M158.305206,624.732605 
	C162.060608,625.422852 163.571259,627.446167 162.814835,630.850281 
	C162.070816,634.198547 159.651443,634.687805 156.662064,634.299316 
	C148.105789,633.187500 139.520721,634.743469 130.881729,633.939331 
	C126.787819,633.558228 125.519974,632.893311 125.677887,629.131836 
	C125.717674,628.184143 125.754738,627.051819 124.340408,626.886963 
	C123.504082,627.046814 123.377037,627.729370 123.289093,628.383789 
	C122.444969,634.665588 122.385719,634.323730 115.780800,634.117249 
	C111.028023,633.968689 106.206276,634.618530 101.477859,633.869080 
	C97.224335,633.194885 93.115799,634.402222 88.933098,634.256042 
	C87.034912,634.189697 84.239426,635.039551 83.850540,632.470459 
	C83.438568,629.748840 80.690468,626.849548 83.492104,624.073242 
	C85.581490,622.002747 89.019943,621.893982 90.850250,622.898987 
	C96.672768,626.096130 102.775909,623.705200 108.610359,624.783997 
	C114.966431,625.959167 120.888680,623.896667 126.954735,622.648315 
	C129.329239,622.159729 131.877274,622.118530 134.034088,624.042847 
	C135.200699,625.083679 137.257889,625.167175 138.307510,624.412659 
	C140.998169,622.478516 143.293167,622.241943 145.735931,624.587830 
	C145.937210,624.781128 146.526749,624.901611 146.678329,624.766602 
	C150.429840,621.426392 154.184097,624.199402 158.305206,624.732605 
z"/>
<path fill="#000000" opacity="1.000000" stroke="none" 
	d="
M55.073051,671.905029 
	C57.642162,667.508789 60.135670,663.393188 54.154282,658.312622 
	C60.149746,657.471375 64.488922,657.166565 69.020676,658.437683 
	C76.349121,660.493225 83.846344,661.230042 91.151169,658.510559 
	C95.596680,656.855591 100.022713,657.455261 104.333275,658.106995 
	C106.849411,658.487366 108.663620,661.296265 107.401665,663.941040 
	C106.034523,666.806274 106.053169,669.171387 107.842545,671.404480 
	C106.897583,672.874512 105.708046,672.930176 104.547379,672.931030 
	C88.902733,672.942566 73.258049,672.946716 57.613514,672.903259 
	C56.831142,672.901123 56.050018,672.447693 55.073051,671.905029 
z"/>
<path fill="#000000" opacity="1.000000" stroke="none" 
	d="
M15.738655,662.946594 
	C15.320756,658.781128 17.045929,657.313721 20.672417,657.603394 
	C25.880684,658.019287 31.163984,657.201965 37.217896,658.315063 
	C33.205170,661.918335 35.872807,665.089905 36.741295,668.865845 
	C33.060257,666.420471 27.962688,671.968872 25.015106,665.873291 
	C24.429293,664.661865 22.128454,665.239868 20.973839,666.289551 
	C19.839369,667.320923 19.487698,669.773743 17.327946,668.782410 
	C15.054487,667.738831 15.998575,665.294128 15.738655,662.946594 
z"/>
<path fill="#000000" opacity="1.000000" stroke="none" 
	d="
M737.198242,412.389832 
	C736.829834,406.602814 738.275757,405.275116 743.426880,405.125336 
	C749.931641,404.936157 756.586609,406.321716 762.879272,403.321838 
	C764.949158,402.335052 766.345642,404.975006 768.421143,404.900757 
	C776.594177,404.608459 784.856506,407.202881 792.984253,403.724640 
	C794.377686,403.128326 796.539795,402.887207 798.955505,404.881378 
	C801.241394,406.768372 806.320068,405.548737 810.132324,405.233948 
	C814.103943,404.905975 816.285034,406.186737 816.203979,410.338409 
	C816.176331,411.752258 816.565491,413.612671 814.521118,413.985779 
	C812.416870,414.369812 812.437378,412.292267 811.708313,411.101410 
	C810.208801,415.906067 805.276245,415.086151 802.803345,414.614868 
	C794.784363,413.086548 785.868896,417.995972 778.151917,412.295319 
	C777.492737,415.186768 774.250366,414.887451 771.316589,414.909851 
	C769.176331,414.926147 767.028198,414.570862 764.891968,414.311371 
	C761.224182,413.865845 758.034973,414.897980 755.134949,417.821838 
	C752.267334,413.292389 748.129395,413.772522 744.054138,414.619843 
	C741.386230,415.174561 739.116333,415.128632 737.198242,412.389832 
z"/>
<path fill="#000000" opacity="1.000000" stroke="none" 
	d="
M748.697266,502.908081 
	C752.849304,503.106659 756.568420,504.180115 760.154236,501.732483 
	C762.169495,500.356934 763.911072,503.183350 766.203186,502.962219 
	C772.218506,502.381866 778.182129,502.646423 784.200928,503.832001 
	C786.403320,504.265808 789.089600,502.242920 791.866638,501.226776 
	C795.523376,503.879181 789.414978,514.843628 800.561768,511.383087 
	C800.710510,510.971924 801.037415,510.241547 801.240723,509.478302 
	C802.599670,504.377594 807.066284,501.222076 812.097412,502.114655 
	C813.975647,502.447845 814.912292,503.948853 814.110718,505.885773 
	C813.290344,507.868042 813.243591,509.729614 815.360413,512.202698 
	C808.834778,512.507751 803.346741,513.058716 798.096802,515.039307 
	C795.230225,516.120789 792.700439,513.891846 790.044617,513.093506 
	C784.874146,511.539337 779.626587,512.781067 774.426514,512.613770 
	C767.704651,512.397522 760.981445,513.392578 754.228271,512.139099 
	C751.767761,511.682404 749.580444,513.550171 747.728760,515.604736 
	C745.564819,513.889709 743.491577,512.779114 740.845764,512.843323 
	C738.492737,512.900513 737.245056,511.176697 737.057495,508.968262 
	C736.874939,506.818909 736.192932,504.251373 739.185608,503.460571 
	C741.218262,504.525299 739.755859,506.500549 741.282349,508.052643 
	C741.445862,503.059570 744.571106,502.525879 748.697266,502.908081 
z"/>
<path fill="#000000" opacity="1.000000" stroke="none" 
	d="
M755.709351,382.236023 
	C750.646973,382.816193 746.064514,381.530609 741.409546,382.133453 
	C738.340881,382.530884 735.968018,380.284332 735.960999,377.557343 
	C735.954346,374.972900 737.817200,372.447693 741.185242,372.682220 
	C745.833435,373.005859 750.295471,373.054138 754.731079,370.900604 
	C756.867004,369.863647 758.786438,372.840912 761.601624,372.704010 
	C770.014709,372.294861 778.466064,372.750702 786.899109,372.631500 
	C789.919006,372.588837 792.747681,375.681641 795.749756,372.655731 
	C797.152832,378.283142 794.188416,383.760498 789.315186,384.595093 
	C789.441406,382.025940 791.405640,379.118561 787.920471,376.891785 
	C787.259583,381.399567 783.763916,381.975586 780.246765,382.111816 
	C777.404541,382.221893 774.765442,382.221252 772.622742,384.602692 
	C771.741333,385.582245 769.806396,385.730469 768.876404,384.882080 
	C765.091370,381.429108 760.433716,382.890228 755.709351,382.236023 
z"/>
<path fill="#000000" opacity="1.000000" stroke="none" 
	d="
M743.162415,447.375153 
	C740.321838,447.740723 738.046631,447.531464 737.111877,444.720245 
	C736.303467,442.288788 736.619507,439.442169 738.908691,438.631287 
	C740.922852,437.917816 742.582520,433.688568 746.006653,437.586243 
	C747.539978,439.331604 751.342041,437.969971 753.807556,437.004089 
	C755.504700,436.339233 756.593323,435.612732 758.131836,437.145752 
	C759.640381,438.649109 761.880188,438.051910 763.340820,437.537048 
	C768.327637,435.779480 772.976868,437.672180 777.665466,438.427887 
	C781.176331,438.993774 783.548462,436.636810 786.562744,435.929962 
	C789.545776,438.872681 787.034546,442.860718 788.805786,445.930573 
	C790.970459,447.205231 794.037720,445.781067 796.548828,448.366577 
	C793.238770,449.784424 790.403198,449.751160 787.650696,448.670258 
	C783.937378,447.212067 780.295044,446.898163 776.261536,447.309662 
	C770.753662,447.871582 765.143372,447.434692 759.576965,447.415771 
	C754.226135,447.397614 748.875305,447.366486 743.162415,447.375153 
z"/>
<path fill="#000000" opacity="1.000000" stroke="none" 
	d="
M739.944580,338.573669 
	C743.219360,340.900146 746.814453,340.247162 750.001648,340.154968 
	C756.153198,339.977081 762.389160,340.466461 768.466980,338.135620 
	C771.928650,336.808075 775.227966,340.849365 779.190491,340.045074 
	C780.326843,339.814392 781.705566,340.316528 783.065613,340.071899 
	C785.310852,339.668152 787.943115,338.893066 789.467590,341.317017 
	C790.952148,343.677368 790.510742,346.279083 789.604675,348.822357 
	C786.086487,348.735138 787.095520,345.958496 786.094971,343.549194 
	C785.564697,345.782471 785.239441,347.152130 784.898743,348.586975 
	C782.211914,349.030975 779.638000,349.827728 777.068420,349.813904 
	C767.980652,349.765076 758.893616,349.885681 749.803772,349.089874 
	C746.636353,348.812592 743.363892,349.479370 740.046448,349.076294 
	C737.547058,348.772614 736.559326,347.614868 736.913208,345.650696 
	C737.375549,343.084259 734.703369,339.138855 739.944580,338.573669 
z"/>
<path fill="#000000" opacity="1.000000" stroke="none" 
	d="
M798.124329,480.090942 
	C796.186768,483.663177 792.270874,483.047577 790.197937,481.948151 
	C784.007263,478.664856 777.568176,480.250824 771.358521,480.214691 
	C765.800354,480.182343 759.992310,480.612427 754.613037,480.129639 
	C750.059143,479.720917 745.743591,480.311737 741.326599,480.269287 
	C738.144714,480.238678 736.933838,478.198151 736.798401,475.422546 
	C736.650757,472.396973 738.276001,470.542206 741.312073,470.778809 
	C746.738037,471.201660 752.268677,469.650635 757.596252,471.602997 
	C759.560913,472.322998 761.143311,470.952576 762.774048,470.515747 
	C767.256897,469.314880 771.599121,470.294952 775.880310,470.846771 
	C780.153259,471.397522 783.940979,471.039276 787.727173,468.174255 
	C790.286316,472.235901 786.612976,481.076752 796.695129,479.152771 
	C797.586060,479.585083 797.855164,479.838013 798.124329,480.090942 
z"/>
<path fill="#000000" opacity="1.000000" stroke="none" 
	d="
M763.589233,319.621246 
	C757.615295,315.045258 750.840942,316.383911 744.552307,316.082520 
	C736.231873,315.683685 734.709534,313.694305 738.272949,305.726013 
	C746.960205,307.763550 755.804504,307.165985 764.597229,306.933807 
	C768.059570,306.842438 771.445251,307.689941 774.978210,307.097656 
	C777.222168,306.721497 779.060669,308.533264 779.308960,311.022278 
	C779.529541,313.234039 779.274170,316.030914 776.669189,316.201202 
	C772.866089,316.449799 769.829834,317.853699 766.829651,319.923920 
	C766.195312,320.361633 764.920044,319.870300 763.589233,319.621246 
z"/>
<path fill="#000000" opacity="1.000000" stroke="none" 
	d="
M745.573853,283.962219 
	C742.241699,283.949249 742.111572,281.438354 741.328308,279.523071 
	C739.572144,280.324188 741.127014,283.065155 738.452148,283.431915 
	C735.886658,281.620911 736.703796,278.893585 737.353455,276.497314 
	C737.978943,274.190094 740.381592,274.299744 741.999207,274.755524 
	C746.729187,276.088135 751.359253,274.653198 756.013550,274.582825 
	C761.289062,274.503082 766.519836,275.506927 771.837097,274.774780 
	C774.598267,274.394592 776.027771,276.573700 775.969055,279.286377 
	C775.909058,282.057068 774.762512,284.676392 771.633057,284.129456 
	C768.467102,283.576080 763.343018,285.843140 762.940918,279.062836 
	C762.844788,283.264191 760.671082,283.630249 757.440063,283.797913 
	C753.617493,283.996307 749.821777,284.276886 745.573853,283.962219 
z"/>
<path fill="#000000" opacity="1.000000" stroke="none" 
	d="
M739.880371,238.190170 
	C743.242554,242.955017 745.136536,237.340576 748.428589,237.496460 
	C749.721252,240.874084 750.496277,244.976578 748.283691,247.841904 
	C745.782166,251.081345 741.437256,248.512405 738.174866,248.031326 
	C735.924133,247.699417 736.775391,243.973236 737.021790,241.805450 
	C737.189209,240.332794 736.045593,237.267273 739.880371,238.190170 
z"/>
<path fill="#000000" opacity="1.000000" stroke="none" 
	d="
M798.570984,480.134399 
	C797.855164,479.838013 797.586060,479.585083 797.130249,479.127014 
	C797.069336,476.268768 797.264587,473.417206 799.152649,471.543304 
	C801.277649,469.434326 804.778625,471.643311 807.464966,469.482819 
	C808.577026,468.588470 810.398315,470.938873 809.851562,472.705719 
	C809.149963,474.973297 809.881653,477.260162 809.325806,479.646210 
	C805.885864,480.451569 802.445862,480.230865 798.570984,480.134399 
z"/>
<path fill="#000000" opacity="1.000000" stroke="none" 
	d="
M808.890503,441.023987 
	C807.742310,443.158264 809.250122,444.793274 809.253479,446.857483 
	C806.770142,447.854156 804.133118,447.148804 801.604736,447.354553 
	C798.877747,447.576508 795.788574,447.639648 796.332458,443.573151 
	C796.775208,440.262451 797.639465,436.322174 802.408020,438.236328 
	C805.007568,439.279816 805.230774,436.285583 807.325745,436.588196 
	C808.872192,437.368530 810.010559,438.542175 808.890503,441.023987 
z"/>
<path fill="#000000" opacity="1.000000" stroke="none" 
	d="
M403.690979,515.284241 
	C411.409821,515.152588 418.777008,514.721985 426.107300,515.069641 
	C431.761871,515.337769 437.359009,515.763000 442.637451,513.464966 
	C446.579590,511.748810 449.541016,515.191345 453.249115,514.921265 
	C455.820312,514.734009 458.456726,515.247131 461.113586,514.858337 
	C463.947754,514.443542 466.268463,515.449158 466.256561,518.719666 
	C466.244690,521.986450 467.693726,523.155518 470.781433,523.156677 
	C472.352570,523.157288 474.200134,523.038086 475.065765,524.957031 
	C470.098816,529.478882 463.999023,526.911621 462.009521,519.453613 
	C460.855682,520.665161 462.163483,522.515869 460.354828,524.059448 
	C451.378204,524.361877 441.913849,524.794312 432.361328,524.051392 
	C429.036011,523.792725 426.166046,524.456238 424.900543,519.888672 
	C424.187317,523.932373 421.602905,524.456909 418.609283,524.468750 
	C412.015350,524.494934 405.420837,524.685913 398.828369,524.622314 
	C396.188019,524.596863 394.826599,522.650635 394.329590,519.995911 
	C392.885681,521.268921 394.135254,523.042053 392.714844,523.854126 
	C392.398102,523.909119 391.988525,524.113037 391.769684,523.986633 
	C388.665161,522.193542 389.796143,519.342468 390.351349,516.919861 
	C390.868713,514.662292 393.046570,514.796753 394.915100,514.994080 
	C397.712646,515.289490 400.558075,514.279846 403.690979,515.284241 
z"/>
<path fill="#000000" opacity="1.000000" stroke="none" 
	d="
M474.972809,555.950989 
	C475.458557,558.845581 473.676697,559.198425 471.414642,559.328430 
	C467.644043,559.545105 464.483246,558.727722 462.855194,554.935303 
	C462.551788,554.228577 462.619141,553.362610 462.182922,552.194641 
	C462.097443,559.519775 456.070038,557.335876 453.075714,557.293579 
	C449.658173,557.245239 446.016998,557.041199 442.852295,557.722778 
	C437.910278,558.787109 433.525391,555.734741 428.667603,556.936096 
	C426.569336,557.455017 426.632843,554.242798 424.834503,552.953857 
	C422.767883,558.316040 418.496552,557.884399 413.907166,557.361450 
	C409.976410,556.913452 405.852539,556.540955 402.024017,557.257324 
	C397.955963,558.018494 395.645996,556.949219 394.252930,553.201050 
	C392.935028,554.182190 394.175873,556.430420 391.775269,556.912354 
	C388.784637,555.488831 389.884521,552.605103 390.158295,550.232910 
	C390.473297,547.503296 392.822296,547.762329 394.827911,547.769226 
	C404.510162,547.802673 414.189850,547.969666 423.876221,547.837769 
	C427.463043,547.788940 431.143585,547.997437 434.785309,547.760864 
	C437.535370,547.582275 440.084595,547.618530 442.742096,545.803711 
	C444.512878,544.594421 447.976868,542.962097 450.358124,547.198303 
	C451.130341,548.572021 455.833466,548.103271 458.684784,547.856384 
	C463.118622,547.472534 466.269714,547.397339 466.681519,553.478699 
	C466.975922,557.825806 471.588379,555.101624 474.568054,555.974121 
	C474.998596,555.989929 474.972809,555.950989 474.972809,555.950989 
z"/>
<path fill="#000000" opacity="1.000000" stroke="none" 
	d="
M452.621704,622.627686 
	C455.007263,622.989380 456.266571,621.277344 457.690887,620.630188 
	C462.984253,623.280151 458.509247,627.873962 460.684082,631.586853 
	C452.271454,629.436340 445.414215,635.722656 436.346466,632.870422 
	C427.447754,630.071472 417.031860,632.213989 407.289185,631.933533 
	C401.921783,631.779053 396.602295,631.202637 391.195862,631.867920 
	C388.628479,632.183899 386.818604,630.317078 386.967499,627.437012 
	C387.132141,624.253540 388.860168,622.654358 392.128662,622.674622 
	C398.884460,622.716492 405.641724,622.614868 412.396332,622.712708 
	C414.972900,622.750061 417.285675,622.290649 418.783539,620.787476 
	C425.398987,623.636536 431.466980,624.775146 437.268890,620.252502 
	C439.560364,621.764099 438.998749,623.902771 439.042542,625.821899 
	C439.094604,628.103638 439.263641,630.255981 442.109589,630.739014 
	C444.901581,631.213074 446.597473,629.739807 447.473389,627.326965 
	C448.338776,624.943115 448.821136,622.350220 452.621704,622.627686 
z"/>
<path fill="#000000" opacity="1.000000" stroke="none" 
	d="
M452.005432,666.008911 
	C451.706024,671.257568 447.118958,669.824951 445.362854,668.929260 
	C437.815796,665.080017 429.950684,667.549133 422.289551,666.910095 
	C416.497009,666.426819 410.665710,667.803833 404.806763,666.236694 
	C402.229218,665.547302 400.104828,668.175171 397.673706,669.635742 
	C395.779144,667.869751 393.611969,667.003113 390.996460,666.985535 
	C388.688843,666.970093 387.419891,665.285950 387.117493,663.110107 
	C386.828125,661.028259 386.564545,658.785522 389.074615,657.916748 
	C391.205566,658.766479 390.696930,660.607605 391.493561,662.258179 
	C392.906067,655.541809 398.045898,657.687439 401.794891,657.940247 
	C405.355286,658.180359 408.305756,657.781982 411.225952,655.246460 
	C414.684082,658.033081 418.385345,658.683044 422.447357,656.262634 
	C425.106781,654.678040 426.941315,657.890869 429.764709,657.885742 
	C434.152435,657.877747 438.402924,658.928833 442.349274,653.933350 
	C443.751495,660.113770 441.582428,668.112915 451.552185,665.982178 
	C452.000092,666.000061 452.005432,666.008911 452.005432,666.008911 
z"/>
<path fill="#000000" opacity="1.000000" stroke="none" 
	d="
M413.975281,489.999695 
	C410.983795,491.991211 407.847809,492.253906 404.530243,492.208801 
	C400.986298,492.160614 397.565216,490.146698 393.862885,491.849579 
	C392.519440,492.467438 390.510223,491.622314 390.318665,489.961609 
	C390.066162,487.772491 389.085022,484.746277 391.361908,483.488098 
	C393.999969,482.030365 397.772064,480.270752 400.134705,481.138702 
	C405.765747,483.207275 411.335663,482.159271 416.890472,482.440216 
	C424.024963,482.801025 424.190643,482.664459 424.867706,490.184052 
	C427.609528,490.672546 430.741760,492.284546 432.474701,488.590637 
	C433.631866,486.124054 432.173126,482.941284 434.263062,480.010498 
	C437.304474,485.153900 440.433716,481.712799 443.624481,480.020844 
	C445.917755,483.264771 445.005096,486.631134 444.541626,489.783966 
	C444.197235,492.126709 441.806610,491.771606 440.035828,491.918579 
	C438.562012,492.040894 436.922302,490.701599 435.666656,491.695038 
	C430.922089,495.448944 426.302704,494.060425 421.185974,492.412964 
	C418.283813,491.478577 415.910706,490.729675 414.788086,487.387238 
	C414.835938,487.244446 413.701721,488.052307 414.300079,488.309479 
	C414.405243,488.354675 414.153656,489.229706 413.975281,489.999695 
z"/>
<path fill="#000000" opacity="1.000000" stroke="none" 
	d="
M436.386047,587.326660 
	C434.799103,590.323853 432.429352,590.243469 429.811035,589.874084 
	C425.368134,589.247437 420.866547,588.670044 417.615204,592.684692 
	C412.801117,588.548584 397.249176,588.709290 391.266052,592.865967 
	C388.459351,589.493347 388.973785,585.438782 390.399994,582.224915 
	C391.747559,579.188354 395.005615,580.200500 397.809723,581.425110 
	C400.160889,582.451843 402.246887,580.159912 404.876404,580.377991 
	C410.407288,580.836731 416.012573,580.311157 421.579529,580.467407 
	C423.631195,580.524963 424.228210,578.611511 426.173126,578.096863 
	C428.087952,579.201721 430.007477,580.626953 432.871521,580.726868 
	C436.239624,580.844482 437.299469,583.713623 436.386047,587.326660 
z"/>
<path fill="#000000" opacity="1.000000" stroke="none" 
	d="
M475.013153,556.008179 
	C475.008087,554.863037 475.050232,553.694763 474.957367,552.537292 
	C474.660431,548.836304 473.565430,546.087219 468.897614,546.976379 
	C467.189972,547.301636 465.307556,547.241821 462.940094,545.327271 
	C470.859039,545.327271 477.849731,545.327271 485.030029,545.327271 
	C485.911896,546.061157 483.844116,546.423035 485.061646,547.674744 
	C489.503815,546.533569 494.323029,549.641602 499.439362,547.822144 
	C501.064850,547.244141 502.754089,548.133423 503.594849,549.834961 
	C504.630676,551.931274 504.436646,554.082947 503.253906,556.026001 
	C502.277100,557.630676 500.361725,558.410339 498.946228,557.406372 
	C496.582031,555.729553 491.100250,559.326477 492.101349,551.797241 
	C490.897125,554.297241 491.501160,556.265625 489.614685,556.717834 
	C487.520508,557.219727 487.420135,555.201416 486.702026,554.136108 
	C483.872467,559.018982 479.656464,557.197937 475.320312,556.192627 
	C474.972809,555.950989 474.998596,555.989929 475.013153,556.008179 
z"/>
<path fill="#000000" opacity="1.000000" stroke="none" 
	d="
M503.262451,515.787964 
	C505.799835,518.047974 505.772095,520.542664 504.440338,522.827271 
	C503.191772,524.969299 500.894287,524.636047 498.632874,524.555237 
	C492.670593,524.342102 486.685547,524.253906 480.731079,524.549561 
	C477.689850,524.700562 475.260010,524.359985 474.496643,521.156128 
	C473.791107,518.195068 475.205994,516.034363 478.005432,514.799561 
	C479.340302,514.210754 480.644379,513.552124 481.872070,512.968018 
	C484.002777,514.114441 483.102203,516.020447 483.456696,517.433838 
	C489.467499,512.067017 496.263062,514.391479 503.262451,515.787964 
z"/>
<path fill="#000000" opacity="1.000000" stroke="none" 
	d="
M389.892303,453.965973 
	C390.076843,452.135010 389.899445,450.464264 391.942230,450.280243 
	C393.946777,451.106537 392.905853,453.286682 393.888275,454.639557 
	C395.527924,453.460236 394.150116,450.575806 396.574768,450.275543 
	C398.222778,450.071503 398.126648,451.648743 398.249695,452.031708 
	C405.034729,447.570526 412.532227,451.366058 419.643372,449.799652 
	C418.486328,458.562714 415.963837,460.219330 408.175049,459.131866 
	C404.211700,458.578461 400.057648,458.859528 396.049927,459.304718 
	C392.028839,459.751343 389.966095,458.486328 389.892303,453.965973 
z"/>
<path fill="#000000" opacity="1.000000" stroke="none" 
	d="
M440.920959,449.831787 
	C441.004639,451.549133 441.104828,452.875153 441.043549,454.193634 
	C440.832336,458.737885 439.168213,460.143372 434.693359,459.059814 
	C432.975006,458.643738 431.267090,458.038300 430.119904,459.455414 
	C427.070648,463.222107 424.180481,461.465271 420.878418,459.744965 
	C422.599884,456.532379 427.252106,459.467346 428.277374,455.719116 
	C428.994202,453.098480 427.839661,450.110260 429.650177,447.774811 
	C432.193939,447.184021 431.502808,449.779205 432.636414,450.348114 
	C435.621246,451.940857 437.485657,444.611145 440.920959,449.831787 
z"/>
<path fill="#000000" opacity="1.000000" stroke="none" 
	d="
M451.996704,665.997559 
	C451.106415,660.076843 452.245605,658.380249 458.090607,657.728943 
	C459.874451,657.530090 460.876099,655.983459 462.660065,655.842834 
	C464.542114,656.940735 465.448853,658.480957 464.627075,660.729492 
	C463.971649,662.523010 464.784821,664.290527 464.916473,666.629517 
	C460.683136,666.184631 456.742279,668.099426 452.358521,666.187256 
	C452.005432,666.008911 452.000092,666.000061 451.996704,665.997559 
z"/>
<path fill="#000000" opacity="1.000000" stroke="none" 
	d="
M389.883606,420.382996 
	C390.110504,417.489685 389.347504,414.719604 391.329071,412.779724 
	C393.743622,412.711823 392.834717,414.926544 394.081482,415.755737 
	C396.230957,414.785309 398.447968,413.784363 400.652100,412.789246 
	C402.854187,416.092407 402.940491,422.107941 400.831512,423.558685 
	C398.437286,425.205688 391.387207,423.405945 389.883606,420.382996 
z"/>
<path fill="#000000" opacity="1.000000" stroke="none" 
	d="
M87.110832,353.914368 
	C97.716217,353.194946 108.112061,355.744843 118.170326,352.256653 
	C120.226624,357.432068 119.765129,362.317657 117.134247,363.216431 
	C113.429047,364.482147 111.557671,363.206818 110.057770,357.668762 
	C109.452507,359.792206 109.047531,361.212952 108.551697,362.952484 
	C104.659676,361.872284 100.937744,365.452911 96.627792,362.033813 
	C95.464714,361.111115 90.072609,362.742920 86.530952,362.986633 
	C78.135994,363.564331 69.817299,364.008972 61.413956,363.038940 
	C59.097553,362.771545 56.453472,363.557007 54.909424,366.896088 
	C51.717499,362.872467 52.211308,358.918732 53.390114,355.622284 
	C54.498661,352.522278 57.760036,353.715668 60.379631,354.293945 
	C63.863293,355.062927 67.271042,353.598999 70.920502,354.067200 
	C76.091721,354.730621 81.441933,353.998749 87.110832,353.914368 
z"/>
<path fill="#000000" opacity="1.000000" stroke="none" 
	d="
M118.211143,433.363800 
	C116.412148,436.834259 112.716713,435.965027 110.773994,435.049133 
	C103.597603,431.665741 96.234283,433.868500 89.006195,433.468964 
	C82.936752,433.133453 76.826653,433.926910 70.728569,433.049347 
	C67.958206,432.650665 65.597023,433.866913 63.970253,436.733521 
	C61.546829,434.639984 59.275909,433.400269 56.087990,433.275208 
	C52.424599,433.131500 51.896740,427.717926 55.063232,424.559204 
	C56.960777,425.241425 55.919544,427.225067 57.108261,428.888489 
	C58.105911,422.397644 62.935738,423.556458 66.891403,423.870575 
	C70.103058,424.125671 73.116676,424.497803 75.907005,422.589447 
	C76.851204,421.943695 77.800835,421.771759 78.628654,422.529327 
	C80.333076,424.089142 82.542137,424.002136 84.312927,423.570435 
	C89.649658,422.269501 94.608170,423.915100 99.702110,424.790833 
	C102.830925,425.328735 104.978165,422.332977 108.467834,422.020538 
	C110.475906,425.832916 106.485641,435.009460 117.092461,432.438324 
	C117.849022,432.847321 118.036629,433.100708 118.211143,433.363800 
z"/>
<path fill="#000000" opacity="1.000000" stroke="none" 
	d="
M114.003357,398.003662 
	C112.375854,402.082703 108.253815,400.949677 106.353355,400.010010 
	C99.974754,396.856171 93.436584,398.612915 87.059547,398.500671 
	C81.683876,398.406067 76.115257,398.772552 70.845413,398.442261 
	C66.180580,398.149872 61.644360,398.337158 57.036049,398.479706 
	C54.129066,398.569611 52.947601,396.574585 52.801476,393.952667 
	C52.641960,391.090363 53.803982,388.694672 56.875145,388.805420 
	C62.329025,389.002075 67.886360,387.746094 73.206802,389.359558 
	C75.298935,389.994019 76.851189,389.093842 78.444870,388.612946 
	C83.241905,387.165436 87.965096,388.398071 92.576767,388.961700 
	C96.587814,389.451874 99.990921,388.825012 103.995247,386.515564 
	C105.485405,391.774353 103.676422,399.893951 113.555107,397.945862 
	C113.999969,398.000000 114.003357,398.003662 114.003357,398.003662 
z"/>
<path fill="#000000" opacity="1.000000" stroke="none" 
	d="
M61.134109,295.492371 
	C56.039272,295.986542 55.025341,293.447632 55.741421,289.434357 
	C56.528698,285.022064 59.879555,285.195343 62.578342,286.454590 
	C65.088448,287.625702 66.688118,286.020874 68.697769,285.841797 
	C75.826347,285.206604 82.901474,286.752106 90.074501,286.105957 
	C93.492432,285.798096 95.134583,288.908264 95.186615,292.275604 
	C95.254402,296.662354 91.473038,295.611511 89.337105,295.660248 
	C80.066460,295.871674 70.785278,295.621063 61.134109,295.492371 
z"/>
<path fill="#000000" opacity="1.000000" stroke="none" 
	d="
M58.680176,318.742249 
	C67.678398,317.956177 76.478554,320.766724 84.939026,316.947571 
	C86.799660,316.107666 90.219963,315.989197 90.028603,319.572632 
	C89.869858,322.545319 92.535103,327.395416 87.022827,327.978546 
	C81.124031,328.602539 75.107880,328.068817 69.144508,328.151947 
	C66.359573,328.190735 67.009468,325.781372 66.219757,324.270630 
	C65.078262,330.384949 59.999634,327.843353 56.685844,328.433624 
	C54.120586,328.890594 52.699795,326.390503 52.814140,323.697510 
	C52.959187,320.281281 54.766346,318.531952 58.680176,318.742249 
z"/>
<path fill="#000000" opacity="1.000000" stroke="none" 
	d="
M55.621162,254.533539 
	C54.850292,252.226654 55.155880,250.573059 57.104305,249.028976 
	C59.691467,250.303452 62.513351,251.782516 65.463371,249.253723 
	C66.272202,248.560379 67.330078,249.113754 68.072716,249.943161 
	C69.365936,251.387497 68.538719,259.167480 66.852615,260.047272 
	C63.627960,261.729828 60.326397,260.056641 57.150757,259.718781 
	C55.117172,259.502411 56.000641,256.633972 55.621162,254.533539 
z"/>
<path fill="#000000" opacity="1.000000" stroke="none" 
	d="
M118.655815,433.359833 
	C118.036629,433.100708 117.849022,432.847321 117.498093,432.433350 
	C117.580223,425.512421 118.082375,425.031067 124.407516,424.106689 
	C125.760193,423.909027 126.994057,422.898407 128.328842,422.239532 
	C133.056854,424.983246 128.459396,429.379822 130.801804,432.616516 
	C126.624031,433.647522 122.846306,433.283051 118.655815,433.359833 
z"/>
<path fill="#000000" opacity="1.000000" stroke="none" 
	d="
M113.997612,397.998169 
	C112.368385,391.870636 113.766174,389.739136 119.844032,388.933960 
	C120.598953,388.833984 121.318977,388.386627 122.028984,388.045685 
	C125.446686,386.404724 126.506943,388.851013 125.967117,391.126526 
	C125.439781,393.349335 126.083305,395.308136 126.046692,397.651367 
	C122.339073,398.722412 118.615250,398.341553 114.455612,398.093933 
	C114.003357,398.003662 113.999969,398.000000 113.997612,397.998169 
z"/>
<path fill="#000000" opacity="1.000000" stroke="none" 
	d="
M451.374969,267.536285 
	C451.481628,259.345062 458.724518,261.521271 462.725708,259.083160 
	C467.262756,261.652344 462.657043,265.958801 465.326996,269.283661 
	C459.331940,269.868317 453.987152,270.107727 448.906921,272.085419 
	C445.881561,273.263184 443.259460,270.409943 440.384186,270.257660 
	C430.125671,269.714417 419.856049,269.789703 409.612946,270.781250 
	C408.977997,270.842712 408.104828,271.168488 407.739929,270.875824 
	C403.824341,267.735352 401.006165,270.333557 398.053131,272.877380 
	C395.749237,271.683990 393.873718,269.934021 390.959930,269.952606 
	C388.066467,269.971069 386.018677,265.393463 387.159821,262.596832 
	C387.493958,261.777985 387.959167,261.075226 388.895386,261.044464 
	C390.749573,260.983429 390.663300,262.701324 391.551544,264.260284 
	C392.208191,261.817535 393.522644,260.616089 395.940643,260.706696 
	C398.586243,260.805817 402.302765,261.876251 403.678009,260.928864 
	C409.983459,256.585083 416.956177,263.214142 423.082977,259.048859 
	C424.828552,257.862152 426.209625,260.938385 428.468353,260.761017 
	C433.076141,260.399200 438.039612,262.583527 441.860535,257.643280 
	C445.027191,261.750763 439.818420,273.029480 451.374969,267.536285 
z"/>
<path fill="#000000" opacity="1.000000" stroke="none" 
	d="
M447.218384,199.356247 
	C446.211365,204.073059 441.930756,202.823441 440.011902,201.891388 
	C433.689301,198.820297 427.191132,199.908142 420.741333,199.841888 
	C411.553558,199.747498 402.362183,199.879349 393.174011,200.023071 
	C390.449921,200.065674 388.048401,199.665344 387.209564,196.723373 
	C386.339020,193.670197 387.714386,191.658981 390.613373,190.450439 
	C391.959473,189.889282 393.139923,188.930725 394.376221,188.164230 
	C397.973053,191.891403 399.929016,192.043289 407.848999,187.120346 
	C410.224182,191.294693 413.392792,191.746109 417.558441,189.348572 
	C420.093262,187.889633 422.756592,190.272827 425.287781,190.724106 
	C429.799469,191.528503 433.276245,190.753342 437.153381,187.714935 
	C439.365875,192.233276 435.835419,201.390930 446.401337,198.939758 
	C446.961090,199.067520 447.218384,199.356247 447.218384,199.356247 
z"/>
<path fill="#000000" opacity="1.000000" stroke="none" 
	d="
M448.140076,234.214218 
	C447.177734,238.870285 442.976227,237.884872 440.974365,236.877792 
	C434.823029,233.783295 428.464447,235.216187 422.218872,234.902374 
	C416.776459,234.628922 411.296814,234.899963 405.842346,235.134048 
	C402.358582,235.283554 400.308533,233.617432 399.201385,230.026077 
	C397.864197,233.921310 392.719360,236.185516 389.737579,234.610458 
	C387.605560,233.484314 386.600677,231.538620 387.118683,229.184738 
	C387.715546,226.472565 389.759186,225.644043 392.392242,225.659897 
	C399.515167,225.702820 406.751038,226.408096 413.725403,225.380234 
	C419.023010,224.599487 423.908112,225.485626 428.907867,226.144485 
	C432.366486,226.600266 434.786682,224.715607 438.058563,223.086716 
	C439.548340,228.091721 437.433289,236.298752 447.487244,233.988663 
	C447.999695,234.048248 448.140076,234.214218 448.140076,234.214218 
z"/>
<path fill="#000000" opacity="1.000000" stroke="none" 
	d="
M443.390472,164.441406 
	C437.557892,164.172150 432.309082,166.396851 427.037750,166.321915 
	C422.667023,166.259781 417.249023,166.294662 414.461487,160.049881 
	C414.252014,166.317780 409.634644,164.594055 406.777008,164.984344 
	C402.391907,165.583237 397.976410,163.432983 393.330475,164.988800 
	C391.163788,165.714371 389.925873,163.622772 390.137146,161.147018 
	C390.361755,158.515137 390.064209,156.359406 393.891663,155.366791 
	C401.134857,153.488373 408.072418,156.937225 415.152771,155.644302 
	C415.605927,155.561539 416.123566,155.918915 416.608704,155.911270 
	C424.030579,155.794174 424.030487,155.787949 424.890167,163.027603 
	C431.406555,165.074707 432.346222,164.434402 432.858093,157.844025 
	C432.978546,156.293457 432.515472,154.449615 434.688599,153.207321 
	C437.350037,157.776047 440.450012,155.497833 443.783752,153.051727 
	C445.273987,157.114075 445.647675,160.661896 443.390472,164.441406 
z"/>
<path fill="#000000" opacity="1.000000" stroke="none" 
	d="
M418.265991,129.063690 
	C416.197021,133.628159 412.021240,132.623917 408.911163,132.507462 
	C404.543488,132.343918 400.155151,132.106079 395.819031,132.399292 
	C392.067993,132.652924 390.127960,131.430557 389.693817,127.722710 
	C389.266418,124.072334 390.184814,123.985641 394.171387,123.650070 
	C401.825104,123.005836 409.483307,123.747009 417.080750,122.820236 
	C418.072113,122.699303 419.083435,122.774536 419.801971,123.658524 
	C420.757874,125.760910 418.408936,126.890762 418.265991,129.063690 
z"/>
<path fill="#000000" opacity="1.000000" stroke="none" 
	d="
M434.476685,122.799751 
	C436.828400,122.942665 438.396637,118.898521 440.325653,121.505737 
	C442.131927,123.947075 441.454712,127.269783 440.613159,130.136200 
	C439.882843,132.623734 437.479645,132.492874 435.610046,132.194656 
	C432.851654,131.754639 430.682556,132.279083 428.171875,133.648148 
	C425.728882,134.980331 422.569489,134.932922 419.696747,133.258881 
	C421.179169,129.083557 426.200836,132.686462 427.507355,129.369232 
	C428.565430,126.682915 427.969055,123.488159 429.605804,121.008850 
	C431.982178,119.853439 431.919373,124.007286 434.476685,122.799751 
z"/>
<path fill="#000000" opacity="1.000000" stroke="none" 
	d="
M446.826691,198.928513 
	C446.429626,192.215927 447.027527,191.316238 453.187256,190.930237 
	C455.121979,190.808990 455.663910,188.704758 457.688568,188.808792 
	C462.002289,191.453079 457.627716,195.869080 460.149231,199.363510 
	C455.641052,199.551880 451.822754,200.589920 447.563171,199.481445 
	C447.218384,199.356247 446.961090,199.067520 446.826691,198.928513 
z"/>
<path fill="#000000" opacity="1.000000" stroke="none" 
	d="
M395.630310,87.949532 
	C397.622467,87.237633 399.275238,86.623329 401.398468,85.834152 
	C402.393188,89.649132 403.783447,93.705536 400.773621,96.436958 
	C398.125519,98.840103 393.182983,97.680542 391.144135,96.033943 
	C388.428619,93.840851 389.567566,89.461533 391.002716,86.264061 
	C393.330231,85.382111 393.159241,89.078781 395.630310,87.949532 
z"/>
<path fill="#000000" opacity="1.000000" stroke="none" 
	d="
M447.925659,233.968689 
	C447.303833,227.526672 447.869507,226.859055 454.121552,225.599854 
	C455.487854,225.324677 456.735504,224.460495 458.114899,223.832474 
	C462.895264,226.499710 458.586456,230.809677 461.049408,234.319412 
	C456.259460,234.463562 452.601501,235.880386 448.488342,234.346085 
	C448.140076,234.214218 447.999695,234.048248 447.925659,233.968689 
z"/>
<path fill="#000000" opacity="1.000000" stroke="none" 
	d="
M442.019287,15.063848 
	C446.132111,16.381802 449.749481,15.496114 453.052368,14.002197 
	C457.288177,12.086273 461.226715,13.546237 465.376129,13.651218 
	C471.008331,13.793714 476.895691,15.845752 482.925720,13.111225 
	C484.066406,12.593930 486.335938,15.657009 489.263153,15.237442 
	C492.628876,14.755034 494.456726,17.338854 494.139587,20.634544 
	C493.832977,23.821018 491.665131,25.325508 488.480530,24.615824 
	C482.731293,23.334616 476.935089,24.458639 471.298096,24.865061 
	C467.011902,25.174088 463.181610,23.442320 458.875732,23.943933 
	C455.621918,24.322989 457.162689,19.554441 455.245544,17.183834 
	C454.632935,19.565868 455.878876,22.369062 453.455200,23.898542 
	C451.110016,25.378475 448.582275,24.141779 446.191986,24.379131 
	C438.896698,25.103537 431.635101,24.195208 424.369171,24.400618 
	C420.122101,24.520685 419.849915,21.980431 419.987518,18.905804 
	C420.119476,15.958526 419.583984,12.592856 424.302246,12.719283 
	C427.752899,12.811743 431.155487,12.268901 434.335052,14.549483 
	C436.415100,16.041409 439.136230,15.476839 442.019287,15.063848 
z"/>
<path fill="#000000" opacity="1.000000" stroke="none" 
	d="
M794.920654,179.152496 
	C792.273560,179.060287 790.958923,177.662064 789.763611,175.217560 
	C788.157898,180.544601 783.741577,178.628128 780.634949,178.909897 
	C775.623657,179.364410 770.522827,178.410858 765.397034,178.943329 
	C762.521912,179.242035 761.010986,177.286865 760.999329,174.162933 
	C760.986145,170.647339 763.067566,169.851562 765.964722,169.178085 
	C773.471130,167.433151 780.839355,170.485931 788.297180,169.527481 
	C793.188110,168.898895 798.029358,170.431458 803.000549,169.686447 
	C807.028259,169.082825 807.392395,172.506348 807.354980,175.412766 
	C807.315186,178.504333 804.948425,179.621216 802.527710,178.818222 
	C799.893799,177.944504 797.677368,178.699783 794.920654,179.152496 
z"/>
<path fill="#000000" opacity="1.000000" stroke="none" 
	d="
M833.851074,168.465988 
	C836.372253,167.247986 845.781189,169.943405 846.726318,171.822113 
	C848.488647,175.325439 846.022766,179.319046 842.033325,178.994873 
	C832.380798,178.210510 822.714722,179.677383 813.063354,178.639008 
	C811.026489,178.419861 809.813110,177.750092 809.914795,175.732849 
	C810.054993,172.951981 809.355530,170.572342 806.439514,168.255295 
	C810.509766,166.364319 814.011292,165.851212 817.109314,167.928284 
	C819.683472,169.654083 821.898682,170.158035 824.237061,168.265411 
	C825.999329,166.839005 827.361389,166.896362 829.091431,168.194748 
	C830.410400,169.184647 831.954895,169.990082 833.851074,168.465988 
z"/>
<path fill="#000000" opacity="1.000000" stroke="none" 
	d="
M459.437439,347.334045 
	C456.212067,346.535828 457.729034,348.819458 457.688995,349.885620 
	C457.566193,353.153809 455.682892,354.183533 452.787415,354.186432 
	C442.942535,354.196289 433.097321,354.175629 423.252960,354.253082 
	C420.635803,354.273651 418.149902,354.260010 417.105042,351.269836 
	C416.326996,349.043091 416.452728,346.223450 418.548523,345.542664 
	C421.171356,344.690643 422.992859,339.974396 426.695648,343.368622 
	C427.453979,344.063751 428.339539,344.869995 429.316437,344.541229 
	C436.926392,341.980347 444.459045,345.982422 452.050812,344.729309 
	C453.850037,344.432343 455.434540,344.093231 457.118347,343.115570 
	C460.560822,341.116760 464.250946,341.263245 467.937714,343.179504 
	C472.826569,345.720581 478.436371,341.421539 483.343964,344.564575 
	C487.988770,339.609283 491.468018,346.122131 495.740631,346.022186 
	C497.383179,345.983734 497.401215,349.304382 496.779694,351.297760 
	C496.160950,353.282135 494.591034,354.559662 492.633423,354.170898 
	C483.704895,352.397675 474.746429,354.728882 465.652527,353.595978 
	C460.311066,352.930542 459.787781,351.509583 459.437439,347.334045 
z"/>
<path fill="#000000" opacity="1.000000" stroke="none" 
	d="
M436.658630,57.265129 
	C435.192444,59.725071 434.808167,61.821243 436.931732,63.522312 
	C435.780609,65.842102 433.912689,65.281708 432.368805,65.288544 
	C419.897797,65.343735 407.425446,65.234238 394.955933,65.381454 
	C391.193756,65.425865 389.278839,64.439705 389.898926,60.280712 
	C390.239624,57.995728 389.998779,55.629433 390.135223,53.306561 
	C390.216736,51.919197 390.673920,50.543522 392.367615,50.503647 
	C394.252289,50.459274 394.265137,51.987679 394.355469,53.332478 
	C394.400055,53.995861 394.405457,54.662106 394.419769,55.327248 
	C394.459656,57.179047 395.498779,58.006298 397.254700,58.102161 
	C399.428375,58.220837 399.468994,56.734699 399.652466,55.140911 
	C400.243164,50.010555 404.064758,48.168251 408.491333,51.137722 
	C412.443665,53.789078 416.639252,53.508682 420.194092,51.536026 
	C424.443085,49.178158 428.617584,49.736988 432.731506,50.453075 
	C435.689728,50.967991 437.314423,53.582352 436.658630,57.265129 
z"/>
<path fill="#000000" opacity="1.000000" stroke="none" 
	d="
M72.002747,229.207062 
	C67.182297,229.199844 62.859707,229.252975 58.540802,229.150574 
	C56.280640,229.097031 54.279339,228.497665 55.921074,225.568069 
	C57.213055,223.262558 56.078239,221.025757 56.039459,218.753479 
	C56.006836,216.841797 55.450829,214.150787 58.214844,213.997360 
	C61.194523,213.831955 60.554268,216.509369 60.584785,218.443314 
	C60.591640,218.877853 60.828629,219.308762 61.000580,219.876343 
	C62.663601,218.743927 61.813545,216.996155 62.406387,215.703369 
	C63.159039,214.062088 64.304298,213.389908 65.991806,214.080261 
	C74.514351,217.566742 82.905182,217.116272 91.559624,214.163773 
	C94.690315,213.095703 98.540527,213.413162 101.915062,213.978287 
	C105.602623,214.595795 106.129959,217.759109 105.501526,221.014084 
	C105.066124,223.269348 103.897392,225.552505 106.946663,227.972427 
	C95.025490,229.593155 83.743202,228.988449 72.002747,229.207062 
z"/>
<path fill="#000000" opacity="1.000000" stroke="none" 
	d="
M422.010376,378.896942 
	C424.828827,376.820892 434.839478,375.945892 436.884888,377.540863 
	C438.875061,379.092865 439.825897,381.479523 438.909485,383.767212 
	C437.858612,386.390472 437.887665,388.706848 439.279388,390.903107 
	C437.812012,392.799286 436.014343,392.261688 434.447784,392.267639 
	C421.305023,392.317505 408.161255,392.219849 395.019470,392.345734 
	C391.350525,392.380859 389.171021,391.597076 389.993866,387.325165 
	C390.241089,386.041626 390.024231,384.670471 390.036591,383.339600 
	C390.097168,376.809570 394.290558,374.471313 400.062805,378.040833 
	C403.560181,380.203613 406.748199,380.617188 410.043488,378.049988 
	C411.251801,377.108673 412.580139,376.618469 413.581543,377.806488 
	C416.010193,380.687805 418.896118,379.732483 422.010376,378.896942 
z"/>
<path fill="#000000" opacity="1.000000" stroke="none" 
	d="
M778.816772,202.064865 
	C781.720215,201.941010 784.227051,201.727966 786.708801,201.892365 
	C790.685364,202.155823 793.306824,205.331894 792.126465,209.078400 
	C791.307739,211.677032 791.086792,213.828918 793.507141,216.707947 
	C774.068604,216.707947 755.625671,216.707947 737.069092,216.707947 
	C737.069092,213.126053 737.118042,209.791260 737.055420,206.458557 
	C736.991577,203.060532 739.115479,200.885300 741.918457,201.694199 
	C745.424133,202.705887 749.370300,201.217880 752.542908,203.980637 
	C754.488525,205.674896 757.027466,204.063843 759.316589,204.246872 
	C764.243042,204.640793 769.220703,204.345444 774.172729,204.491669 
	C776.167114,204.550568 776.803650,202.559708 778.816772,202.064865 
z"/>
<path fill="#000000" opacity="1.000000" stroke="none" 
	d="
M36.271996,222.066162 
	C36.809639,223.129669 37.170437,224.550293 36.507977,224.546127 
	C33.041168,224.524353 28.709612,226.458481 26.310703,223.694260 
	C23.683123,220.666565 22.188629,222.037903 20.351271,223.637268 
	C19.428175,224.440796 18.726843,225.365158 17.440592,224.929626 
	C15.899570,224.407837 15.905995,222.977905 15.760207,221.642944 
	C14.987684,214.569122 16.043499,213.433121 23.124205,213.762054 
	C25.434107,213.869354 27.780859,213.724442 30.046173,214.092453 
	C32.152473,214.434601 34.312061,212.927750 36.545162,214.504959 
	C36.738068,216.864761 32.709690,219.192963 36.271996,222.066162 
z"/>
<path fill="#000000" opacity="1.000000" stroke="none" 
	d="
M349.859680,55.974564 
	C349.352661,50.975040 351.726471,49.681683 355.852692,50.003368 
	C360.801697,50.389210 365.768677,50.544586 371.525269,50.840790 
	C368.341431,54.529457 368.735779,57.772594 371.841888,60.637478 
	C366.486664,62.807766 361.121552,61.586338 358.995728,58.143948 
	C357.660339,58.034435 356.308960,58.111481 355.231934,59.001343 
	C354.076263,59.956158 353.990509,62.591091 351.688690,61.665489 
	C349.321075,60.713417 350.032562,58.328976 349.859680,55.974564 
z"/>
<path fill="#000000" opacity="1.000000" stroke="none" 
	d="
M357.492188,385.236786 
	C357.011139,385.335419 356.851562,385.394653 356.687408,385.413330 
	C354.452667,385.667633 354.169647,390.548798 351.300598,388.284271 
	C348.501923,386.075378 349.833771,382.346527 350.108582,379.328430 
	C350.387573,376.264587 353.234833,376.851807 355.276001,376.877563 
	C360.628967,376.945129 366.042480,376.435822 371.803131,377.362091 
	C368.908691,381.624146 368.908691,381.624146 371.304108,388.664185 
	C366.366150,388.395844 361.527771,389.443085 357.492188,385.236786 
z"/>
<path fill="#000000" opacity="1.000000" stroke="none" 
	d="
M697.876221,202.710541 
	C704.657227,201.143616 711.079712,202.470551 718.671997,202.077820 
	C715.261963,206.323761 716.294983,209.675735 718.484192,213.464401 
	C714.366638,211.142731 709.781006,215.943481 706.287476,211.214767 
	C705.214050,209.761871 703.204285,210.978867 701.980225,212.220901 
	C701.016785,213.198410 700.084473,214.177826 698.568542,213.528549 
	C696.937500,212.830002 696.572083,211.300613 696.683716,209.798050 
	C696.852844,207.520767 696.373230,205.137665 697.876221,202.710541 
z"/>
<path fill="#000000" opacity="1.000000" stroke="none" 
	d="
M814.177124,802.547852 
	C814.261658,803.148926 814.228271,803.463013 814.194946,803.777161 
	C806.427673,802.907593 799.407349,809.553955 791.009705,805.321411 
	C786.236389,802.915649 780.270996,804.655029 774.859314,804.566528 
	C767.942383,804.453430 761.033813,805.496704 754.098694,804.144165 
	C751.511108,803.639526 749.642700,805.990234 747.360046,807.447754 
	C745.481506,805.443359 743.388306,804.400818 740.437012,804.539795 
	C737.373169,804.684204 737.048096,801.872192 736.983215,799.459961 
	C736.916199,796.970459 738.012146,796.529175 740.633789,796.255371 
	C745.208618,795.777649 750.241699,796.430420 754.116028,795.440613 
	C759.529968,794.057434 764.537476,795.874512 769.271118,794.819519 
	C773.166016,793.951477 776.680786,794.759521 779.865723,795.400391 
	C784.450623,796.322998 787.855896,794.922302 791.458801,792.914368 
	C794.013977,794.884949 793.503967,797.455566 793.388916,799.871765 
	C793.293152,801.881775 793.428833,803.591492 796.029541,803.733765 
	C798.253662,803.855469 800.605347,804.109436 801.035583,801.084778 
	C801.649292,796.769714 803.437500,794.414795 808.328186,795.417236 
	C809.391663,795.635071 810.810486,794.119080 811.987488,793.446411 
	C816.798645,795.530518 812.578064,799.526184 814.177124,802.547852 
z"/>
<path fill="#000000" opacity="1.000000" stroke="none" 
	d="
M791.326660,770.700745 
	C795.587646,771.583740 797.104980,769.514893 797.838135,766.083984 
	C798.309265,763.879395 806.510498,760.434631 808.421204,761.493896 
	C809.502319,762.093201 810.265137,763.159729 809.944031,764.392700 
	C809.352661,766.664001 809.445923,768.945251 810.008728,771.820312 
	C804.084290,771.871094 798.779724,772.677429 793.600952,774.249634 
	C790.458801,775.203552 787.959534,772.367310 785.070923,772.334900 
	C775.359192,772.225525 765.602600,772.999634 755.946533,772.294556 
	C750.746948,771.914856 745.630676,772.575012 740.510620,772.115662 
	C737.346130,771.831726 736.602356,769.317810 736.754822,766.608643 
	C736.918152,763.705566 738.818359,762.678650 741.518982,762.680969 
	C748.625977,762.687195 755.815247,763.310364 762.811340,762.423096 
	C767.558533,761.821106 772.016846,762.307800 776.605103,762.713318 
	C782.455383,763.230347 782.841431,763.142090 787.365723,760.634155 
	C791.232422,762.995117 786.798706,768.377991 791.326660,770.700745 
z"/>
<path fill="#000000" opacity="1.000000" stroke="none" 
	d="
M787.835449,729.904297 
	C790.147888,732.647888 788.287720,738.563293 785.351562,739.011536 
	C784.219971,739.184326 783.025146,739.475586 781.933350,739.285767 
	C776.810181,738.395386 771.698975,739.615662 766.584595,739.238037 
	C764.879089,739.112122 763.714722,738.457397 763.464722,736.547668 
	C758.665771,741.442566 743.003296,740.146423 741.455627,734.846741 
	C739.557739,735.485107 741.061340,738.119995 738.821289,738.781372 
	C735.822449,737.320007 736.841309,734.458923 737.239807,732.098511 
	C737.683960,729.467712 740.187134,729.386414 742.043274,729.841980 
	C745.076599,730.586548 750.393555,727.848145 749.923340,735.377319 
	C750.164551,730.548706 752.695496,730.007568 756.004028,729.752014 
	C760.043579,729.440125 764.362122,730.889771 768.119141,728.180786 
	C768.405396,727.974365 769.160278,728.094055 769.502258,728.336914 
	C775.192993,732.378174 781.465759,729.396729 787.835449,729.904297 
z"/>
<path fill="#000000" opacity="1.000000" stroke="none" 
	d="
M748.495483,703.285095 
	C745.078979,705.672302 741.854736,702.682617 738.650085,703.780212 
	C737.914856,704.031921 737.191772,702.967529 737.119507,702.115479 
	C736.858826,699.043579 736.262451,695.896240 738.137268,693.246521 
	C740.517761,692.674988 739.838013,695.072815 741.231567,695.708862 
	C743.300476,694.870117 745.556396,693.955566 748.073059,692.935364 
	C750.044617,696.235046 749.332092,699.604431 748.495483,703.285095 
z"/>
<path fill="#000000" opacity="1.000000" stroke="none" 
	d="
M809.330688,628.632935 
	C810.176880,632.723389 808.545471,634.394775 804.903381,634.329651 
	C801.420227,634.267334 797.937134,634.089539 794.455200,634.116028 
	C792.170837,634.133362 791.879333,632.444214 791.304077,630.737488 
	C788.681030,636.370789 783.720764,633.952393 779.671326,634.214478 
	C774.724792,634.534607 769.740051,634.225464 764.783264,634.445068 
	C762.659241,634.539307 760.791077,634.647217 759.584412,632.543762 
	C758.527893,630.701904 758.137817,628.804138 759.263611,626.864624 
	C760.439941,624.838135 762.381287,624.722656 764.478149,624.732056 
	C774.064941,624.775269 783.750366,625.522949 793.194153,624.352539 
	C797.393860,623.832153 801.062683,624.516235 804.971741,624.812134 
	C807.187988,624.979919 808.784485,625.906738 809.330688,628.632935 
z"/>
<path fill="#000000" opacity="1.000000" stroke="none" 
	d="
M842.919312,634.272705 
	C836.850342,633.130737 831.097412,634.079041 825.433838,634.450195 
	C821.613708,634.700500 818.114380,631.998413 814.251526,633.864868 
	C813.318359,634.315674 812.434814,632.937744 812.414246,631.948547 
	C812.350769,628.902344 811.120789,626.309082 808.712769,623.206909 
	C813.348267,622.876404 816.927795,621.208496 820.787476,623.797791 
	C822.559570,624.986511 825.054321,626.188232 826.898865,623.363647 
	C827.063721,623.111206 827.606201,622.778748 827.674255,622.836426 
	C831.823120,626.351074 836.559387,622.863892 840.894775,623.966003 
	C841.844849,624.207581 842.794556,624.657227 843.744385,624.656982 
	C847.474182,624.655762 849.428345,626.398804 849.162781,630.150452 
	C848.905457,633.786194 846.674683,634.969604 842.919312,634.272705 
z"/>
<path fill="#000000" opacity="1.000000" stroke="none" 
	d="
M774.000000,672.980957 
	C761.275208,672.980896 749.050415,672.980896 736.115784,672.980896 
	C737.364990,669.386169 737.736816,667.097290 737.078552,664.402710 
	C735.797363,659.158142 740.781860,655.348511 746.019531,657.947021 
	C750.358398,660.099609 754.616211,659.746643 758.992859,659.905212 
	C766.903198,660.191895 774.721436,659.582520 782.500305,657.916809 
	C785.527588,657.268555 788.795410,657.549622 791.940735,657.692261 
	C796.515259,657.899780 798.642090,660.717529 797.077942,665.087830 
	C796.189270,667.570862 796.341003,669.407043 798.778748,671.870605 
	C790.182861,673.971863 782.274048,672.507874 774.000000,672.980957 
z"/>
<path fill="#000000" opacity="1.000000" stroke="none" 
	d="
M713.502319,668.207581 
	C709.876404,669.495911 707.196655,669.269714 706.351929,665.244019 
	C704.200134,665.119141 702.770996,665.749146 701.788574,667.306824 
	C701.030273,668.509216 700.059814,669.475037 698.533875,668.847961 
	C697.102051,668.259583 697.020691,666.842896 696.863403,665.495728 
	C696.039185,658.437439 696.988342,657.439819 704.209900,657.568115 
	C708.625183,657.646545 713.042969,657.582642 718.444946,657.582642 
	C715.596680,661.709717 716.732910,664.881836 718.341797,667.798340 
	C716.800537,669.920288 715.301575,669.150269 713.502319,668.207581 
z"/>
</svg>